<?xml version="1.0" encoding="UTF-8" standalone="no"?><!DOCTYPE svg PUBLIC "-//W3C//DTD SVG 1.1//EN" "http://www.w3.org/Graphics/SVG/1.1/DTD/svg11.dtd"><!-- Generated by graphviz version 2.40.1 (20161225.0304)
 --><!-- Title: G Pages: 1 --><svg xmlns="http://www.w3.org/2000/svg" xmlns:xlink="http://www.w3.org/1999/xlink" width="829pt" height="975pt" viewBox="0.00 0.00 829.00 975.04">
<g id="graph0" class="graph" transform="scale(1 1) rotate(0) translate(4 971.0427)">
<title>G</title>
<polygon fill="#ffffff" stroke="transparent" points="-4,4 -4,-971.0427 825,-971.0427 825,4 -4,4"/>
<g id="clust1" class="cluster">
<title>cluster_Web</title>
<polygon fill="none" stroke="#000000" points="8,-764.8526 8,-888.2427 813,-888.2427 813,-764.8526 8,-764.8526"/>
<text text-anchor="middle" x="410.5" y="-871.6427" font-family="Times,serif" font-size="14.00" fill="#000000">Web</text>
</g>
<g id="clust2" class="cluster">
<title>cluster_Core</title>
<polygon fill="none" stroke="#000000" points="191,-80.8 191,-696.4526 739,-696.4526 739,-80.8 191,-80.8"/>
<text text-anchor="middle" x="465" y="-679.8526" font-family="Times,serif" font-size="14.00" fill="#000000">Core</text>
</g>
<!-- segment&#45;rule&#45;\ntrigger&#45;\nservice -->
<g id="node1" class="node">
<title>segment-rule-\ntrigger-\nservice</title>
<ellipse fill="none" stroke="#000000" cx="479" cy="-814.1477" rx="66.0719" ry="41.0911"/>
<text text-anchor="middle" x="479" y="-826.7477" font-family="Times,serif" font-size="14.00" fill="#000000">segment-rule-</text>
<text text-anchor="middle" x="479" y="-809.9477" font-family="Times,serif" font-size="14.00" fill="#000000">trigger-</text>
<text text-anchor="middle" x="479" y="-793.1477" font-family="Times,serif" font-size="14.00" fill="#000000">service</text>
</g>
<!-- segment&#45;\nrule&#45;\nevaluator -->
<g id="node7" class="node">
<title>segment-\nrule-\nevaluator</title>
<ellipse fill="none" stroke="#000000" cx="388" cy="-423.3263" rx="48.288" ry="41.0911"/>
<text text-anchor="middle" x="388" y="-435.9263" font-family="Times,serif" font-size="14.00" fill="#000000">segment-</text>
<text text-anchor="middle" x="388" y="-419.1263" font-family="Times,serif" font-size="14.00" fill="#000000">rule-</text>
<text text-anchor="middle" x="388" y="-402.3263" font-family="Times,serif" font-size="14.00" fill="#000000">evaluator</text>
</g>
<!-- segment&#45;rule&#45;\ntrigger&#45;\nservice&#45;&gt;segment&#45;\nrule&#45;\nevaluator -->
<g id="edge7" class="edge">
<title>segment-rule-\ntrigger-\nservice-&gt;segment-\nrule-\nevaluator</title>
<path fill="none" stroke="#000000" stroke-dasharray="5,2" d="M493.2146,-773.776C512.5555,-711.5558 539.9252,-590.1624 495,-501.6214 494.5423,-500.7193 462.303,-477.1848 433.3351,-456.1537"/>
<polygon fill="#000000" stroke="#000000" points="435.0353,-453.0631 424.886,-450.023 430.9242,-458.7287 435.0353,-453.0631"/>
<text text-anchor="middle" x="543.8198" y="-574.2214" font-family="Times,serif" font-size="14.00" fill="#000000">rule</text>
<text text-anchor="middle" x="543.8198" y="-557.4214" font-family="Times,serif" font-size="14.00" fill="#000000">exec</text>
<text text-anchor="middle" x="543.8198" y="-540.6214" font-family="Times,serif" font-size="14.00" fill="#000000">requested</text>
</g>
<!-- user&#45;rule&#45;\ntrigger&#45;\nservice -->
<g id="node2" class="node">
<title>user-rule-\ntrigger-\nservice</title>
<ellipse fill="none" stroke="#000000" cx="755" cy="-814.1477" rx="49.5712" ry="41.0911"/>
<text text-anchor="middle" x="755" y="-826.7477" font-family="Times,serif" font-size="14.00" fill="#000000">user-rule-</text>
<text text-anchor="middle" x="755" y="-809.9477" font-family="Times,serif" font-size="14.00" fill="#000000">trigger-</text>
<text text-anchor="middle" x="755" y="-793.1477" font-family="Times,serif" font-size="14.00" fill="#000000">service</text>
</g>
<!-- user&#45;\nrule&#45;\nevaluator -->
<g id="node8" class="node">
<title>user-\nrule-\nevaluator</title>
<ellipse fill="none" stroke="#000000" cx="680" cy="-423.3263" rx="48.288" ry="41.0911"/>
<text text-anchor="middle" x="680" y="-435.9263" font-family="Times,serif" font-size="14.00" fill="#000000">user-</text>
<text text-anchor="middle" x="680" y="-419.1263" font-family="Times,serif" font-size="14.00" fill="#000000">rule-</text>
<text text-anchor="middle" x="680" y="-402.3263" font-family="Times,serif" font-size="14.00" fill="#000000">evaluator</text>
</g>
<!-- user&#45;rule&#45;\ntrigger&#45;\nservice&#45;&gt;user&#45;\nrule&#45;\nevaluator -->
<g id="edge8" class="edge">
<title>user-rule-\ntrigger-\nservice-&gt;user-\nrule-\nevaluator</title>
<path fill="none" stroke="#000000" stroke-dasharray="5,2" d="M747.1154,-773.0616C733.312,-701.1327 704.8105,-552.6124 689.7761,-474.2693"/>
<polygon fill="#000000" stroke="#000000" points="693.1571,-473.3158 687.8351,-464.1547 686.2826,-474.6351 693.1571,-473.3158"/>
<text text-anchor="middle" x="736.8198" y="-574.2214" font-family="Times,serif" font-size="14.00" fill="#000000">rule</text>
<text text-anchor="middle" x="736.8198" y="-557.4214" font-family="Times,serif" font-size="14.00" fill="#000000">exec</text>
<text text-anchor="middle" x="736.8198" y="-540.6214" font-family="Times,serif" font-size="14.00" fill="#000000">requested</text>
</g>
<!-- rule&#45;\naction&#45;\nmanagement -->
<g id="node3" class="node">
<title>rule-\naction-\nmanagement</title>
<ellipse fill="none" stroke="#000000" cx="625" cy="-814.1477" rx="61.7866" ry="41.0911"/>
<text text-anchor="middle" x="625" y="-826.7477" font-family="Times,serif" font-size="14.00" fill="#000000">rule-</text>
<text text-anchor="middle" x="625" y="-809.9477" font-family="Times,serif" font-size="14.00" fill="#000000">action-</text>
<text text-anchor="middle" x="625" y="-793.1477" font-family="Times,serif" font-size="14.00" fill="#000000">management</text>
</g>
<!-- segment&#45;change&#45;\nrule&#45;\nevaluator -->
<g id="node10" class="node">
<title>segment-change-\nrule-\nevaluator</title>
<ellipse fill="none" stroke="#000000" cx="533" cy="-423.3263" rx="78.8546" ry="41.0911"/>
<text text-anchor="middle" x="533" y="-435.9263" font-family="Times,serif" font-size="14.00" fill="#000000">segment-change-</text>
<text text-anchor="middle" x="533" y="-419.1263" font-family="Times,serif" font-size="14.00" fill="#000000">rule-</text>
<text text-anchor="middle" x="533" y="-402.3263" font-family="Times,serif" font-size="14.00" fill="#000000">evaluator</text>
</g>
<!-- rule&#45;\naction&#45;\nmanagement&#45;&gt;segment&#45;change&#45;\nrule&#45;\nevaluator -->
<g id="edge14" class="edge">
<title>rule-\naction-\nmanagement-&gt;segment-change-\nrule-\nevaluator</title>
<path fill="none" stroke="#000000" stroke-dasharray="5,2" d="M619.8783,-772.6992C612.5857,-717.969 597.5436,-618.8857 575,-536.4214 569.2593,-515.422 561.2566,-492.8313 553.7751,-473.4032"/>
<polygon fill="#000000" stroke="#000000" points="556.9414,-471.8895 550.0412,-463.8498 550.4217,-474.4378 556.9414,-471.8895"/>
<text text-anchor="middle" x="610.3219" y="-574.2214" font-family="Times,serif" font-size="14.00" fill="#000000">rule</text>
<text text-anchor="middle" x="610.3219" y="-557.4214" font-family="Times,serif" font-size="14.00" fill="#000000">changed</text>
<text text-anchor="middle" x="610.3219" y="-540.6214" font-family="Times,serif" font-size="14.00" fill="#000000">event</text>
</g>
<!-- user&#45;\nmanagement -->
<g id="node4" class="node">
<title>user-\nmanagement</title>
<ellipse fill="none" stroke="#000000" cx="78" cy="-814.1477" rx="61.7866" ry="29.3315"/>
<text text-anchor="middle" x="78" y="-818.3477" font-family="Times,serif" font-size="14.00" fill="#000000">user-</text>
<text text-anchor="middle" x="78" y="-801.5477" font-family="Times,serif" font-size="14.00" fill="#000000">management</text>
</g>
<!-- segment&#45;user&#45;\nmanagement -->
<g id="node9" class="node">
<title>segment-user-\nmanagement</title>
<ellipse fill="none" stroke="#000000" cx="266" cy="-634.237" rx="67.2691" ry="29.3315"/>
<text text-anchor="middle" x="266" y="-638.437" font-family="Times,serif" font-size="14.00" fill="#000000">segment-user-</text>
<text text-anchor="middle" x="266" y="-621.637" font-family="Times,serif" font-size="14.00" fill="#000000">management</text>
</g>
<!-- user&#45;\nmanagement&#45;&gt;segment&#45;user&#45;\nmanagement -->
<g id="edge11" class="edge">
<title>user-\nmanagement-&gt;segment-user-\nmanagement</title>
<path fill="none" stroke="#000000" stroke-dasharray="5,2" d="M103.4506,-786.956C124.8458,-764.3887 156.4756,-731.6984 185.3562,-704.4526 198.676,-691.8869 213.7041,-678.5799 227.1466,-666.9686"/>
<polygon fill="#000000" stroke="#000000" points="229.5497,-669.5183 234.8531,-660.3463 224.9875,-664.2091 229.5497,-669.5183"/>
<text text-anchor="middle" x="209.3219" y="-742.2526" font-family="Times,serif" font-size="14.00" fill="#000000">user</text>
<text text-anchor="middle" x="209.3219" y="-725.4526" font-family="Times,serif" font-size="14.00" fill="#000000">changed</text>
<text text-anchor="middle" x="209.3219" y="-708.6526" font-family="Times,serif" font-size="14.00" fill="#000000">event</text>
</g>
<!-- segment&#45;\nmanagement -->
<g id="node5" class="node">
<title>segment-\nmanagement</title>
<ellipse fill="none" stroke="#000000" cx="220" cy="-814.1477" rx="61.7866" ry="29.3315"/>
<text text-anchor="middle" x="220" y="-818.3477" font-family="Times,serif" font-size="14.00" fill="#000000">segment-</text>
<text text-anchor="middle" x="220" y="-801.5477" font-family="Times,serif" font-size="14.00" fill="#000000">management</text>
</g>
<!-- segment&#45;\nmanagement&#45;&gt;segment&#45;user&#45;\nmanagement -->
<g id="edge9" class="edge">
<title>segment-\nmanagement-&gt;segment-user-\nmanagement</title>
<path fill="none" stroke="#000000" stroke-dasharray="5,2" d="M227.4931,-784.8415C235.2451,-754.5225 247.3964,-706.9977 255.9723,-673.4565"/>
<polygon fill="#000000" stroke="#000000" points="259.4238,-674.086 258.5101,-663.5306 252.642,-672.3519 259.4238,-674.086"/>
<text text-anchor="middle" x="272.2728" y="-742.2526" font-family="Times,serif" font-size="14.00" fill="#000000">segmemt</text>
<text text-anchor="middle" x="272.2728" y="-725.4526" font-family="Times,serif" font-size="14.00" fill="#000000">changed</text>
<text text-anchor="middle" x="272.2728" y="-708.6526" font-family="Times,serif" font-size="14.00" fill="#000000">event</text>
</g>
<!-- segment&#45;\nquery&#45;\nservice -->
<g id="node6" class="node">
<title>segment-\nquery-\nservice</title>
<ellipse fill="none" stroke="#000000" cx="347" cy="-814.1477" rx="47.6988" ry="41.0911"/>
<text text-anchor="middle" x="347" y="-826.7477" font-family="Times,serif" font-size="14.00" fill="#000000">segment-</text>
<text text-anchor="middle" x="347" y="-809.9477" font-family="Times,serif" font-size="14.00" fill="#000000">query-</text>
<text text-anchor="middle" x="347" y="-793.1477" font-family="Times,serif" font-size="14.00" fill="#000000">service</text>
</g>
<!-- segment&#45;\nquery&#45;\nservice&#45;&gt;segment&#45;user&#45;\nmanagement -->
<g id="edge10" class="edge">
<title>segment-\nquery-\nservice-&gt;segment-user-\nmanagement</title>
<path fill="none" stroke="#000000" d="M330.3696,-775.453C321.2442,-754.3967 309.6497,-727.9266 299,-704.4526 294.2707,-694.0284 289.0447,-682.7872 284.1728,-672.4202"/>
<polygon fill="#000000" stroke="#000000" points="287.2532,-670.7462 279.8227,-663.1938 280.9216,-673.7315 287.2532,-670.7462"/>
<text text-anchor="middle" x="335.9376" y="-725.4526" font-family="Times,serif" font-size="14.00" fill="#000000">query</text>
</g>
<!-- action&#45;\nexecutor -->
<g id="node11" class="node">
<title>action-\nexecutor</title>
<ellipse fill="none" stroke="#000000" cx="531" cy="-245.0156" rx="45.2857" ry="29.3315"/>
<text text-anchor="middle" x="531" y="-249.2156" font-family="Times,serif" font-size="14.00" fill="#000000">action-</text>
<text text-anchor="middle" x="531" y="-232.4156" font-family="Times,serif" font-size="14.00" fill="#000000">executor</text>
</g>
<!-- segment&#45;\nrule&#45;\nevaluator&#45;&gt;action&#45;\nexecutor -->
<g id="edge17" class="edge">
<title>segment-\nrule-\nevaluator-&gt;action-\nexecutor</title>
<path fill="none" stroke="#000000" stroke-dasharray="5,2" d="M415.5718,-388.9462C440.9028,-357.3604 478.2437,-310.7989 503.5394,-279.257"/>
<polygon fill="#000000" stroke="#000000" points="506.4891,-281.1733 510.0151,-271.1823 501.0283,-276.7938 506.4891,-281.1733"/>
<text text-anchor="middle" x="488.6599" y="-332.4313" font-family="Times,serif" font-size="14.00" fill="#000000">user</text>
<text text-anchor="middle" x="488.6599" y="-315.6313" font-family="Times,serif" font-size="14.00" fill="#000000">task</text>
</g>
<!-- user&#45;\nrule&#45;\nevaluator&#45;&gt;action&#45;\nexecutor -->
<g id="edge16" class="edge">
<title>user-\nrule-\nevaluator-&gt;action-\nexecutor</title>
<path fill="none" stroke="#000000" stroke-dasharray="5,2" d="M651.6235,-389.3677C625.0804,-357.6032 585.6593,-310.4273 559.18,-278.7391"/>
<polygon fill="#000000" stroke="#000000" points="561.8405,-276.4645 552.7425,-271.0352 556.469,-280.9531 561.8405,-276.4645"/>
<text text-anchor="middle" x="625.6599" y="-332.4313" font-family="Times,serif" font-size="14.00" fill="#000000">user</text>
<text text-anchor="middle" x="625.6599" y="-315.6313" font-family="Times,serif" font-size="14.00" fill="#000000">task</text>
</g>
<!-- segment&#45;user&#45;\nmanagement&#45;&gt;segment&#45;\nrule&#45;\nevaluator -->
<g id="edge12" class="edge">
<title>segment-user-\nmanagement-&gt;segment-\nrule-\nevaluator</title>
<path fill="none" stroke="#000000" stroke-dasharray="5,2" d="M249.2561,-605.582C235.1266,-577.2775 220.0324,-533.6896 239.3842,-501.6214 259.4065,-468.4421 298.6854,-448.6122 331.8349,-437.2127"/>
<polygon fill="#000000" stroke="#000000" points="333.0255,-440.506 341.4481,-434.0787 330.8557,-433.8507 333.0255,-440.506"/>
<text text-anchor="middle" x="293.8079" y="-505.8214" font-family="Times,serif" font-size="14.00" fill="#000000">user-segment-event</text>
</g>
<!-- segment&#45;user&#45;\nmanagement&#45;&gt;segment&#45;change&#45;\nrule&#45;\nevaluator -->
<g id="edge13" class="edge">
<title>segment-user-\nmanagement-&gt;segment-change-\nrule-\nevaluator</title>
<path fill="none" stroke="#000000" stroke-dasharray="5,2" d="M298.7394,-608.3752C344.3029,-572.3834 427.3041,-506.8185 481.2839,-464.1783"/>
<polygon fill="#000000" stroke="#000000" points="483.681,-466.7451 489.3586,-457.7999 479.3419,-461.2521 483.681,-466.7451"/>
<text text-anchor="middle" x="486.8079" y="-505.8214" font-family="Times,serif" font-size="14.00" fill="#000000">user-segment-event</text>
</g>
<!-- segment&#45;change&#45;\nrule&#45;\nevaluator&#45;&gt;action&#45;\nexecutor -->
<g id="edge15" class="edge">
<title>segment-change-\nrule-\nevaluator-&gt;action-\nexecutor</title>
<path fill="none" stroke="#000000" stroke-dasharray="5,2" d="M532.5361,-381.9701C532.2073,-352.6492 531.7685,-313.5355 531.4442,-284.6162"/>
<polygon fill="#000000" stroke="#000000" points="534.9423,-284.4201 531.3303,-274.46 527.9427,-284.4987 534.9423,-284.4201"/>
<text text-anchor="middle" x="543.6599" y="-332.4313" font-family="Times,serif" font-size="14.00" fill="#000000">user</text>
<text text-anchor="middle" x="543.6599" y="-315.6313" font-family="Times,serif" font-size="14.00" fill="#000000">task</text>
</g>
<!-- sms&#45;sender -->
<g id="node12" class="node">
<title>sms-sender</title>
<ellipse fill="none" stroke="#000000" cx="253" cy="-106.8" rx="54.4508" ry="18"/>
<text text-anchor="middle" x="253" y="-102.6" font-family="Times,serif" font-size="14.00" fill="#000000">sms-sender</text>
</g>
<!-- action&#45;\nexecutor&#45;&gt;sms&#45;sender -->
<g id="edge18" class="edge">
<title>action-\nexecutor-&gt;sms-sender</title>
<path fill="none" stroke="#000000" d="M494.9414,-227.0881C442.8305,-201.1796 346.8041,-153.4374 292.7201,-126.548"/>
<polygon fill="#000000" stroke="#000000" points="293.9629,-123.2572 283.4504,-121.9393 290.8466,-129.5253 293.9629,-123.2572"/>
<text text-anchor="middle" x="406.1052" y="-166" font-family="Times,serif" font-size="14.00" fill="#000000">call</text>
</g>
<!-- email&#45;sender -->
<g id="node13" class="node">
<title>email-sender</title>
<ellipse fill="none" stroke="#000000" cx="386" cy="-106.8" rx="60.8101" ry="18"/>
<text text-anchor="middle" x="386" y="-102.6" font-family="Times,serif" font-size="14.00" fill="#000000">email-sender</text>
</g>
<!-- action&#45;\nexecutor&#45;&gt;email&#45;sender -->
<g id="edge19" class="edge">
<title>action-\nexecutor-&gt;email-sender</title>
<path fill="none" stroke="#000000" d="M505.4107,-220.6236C479.0676,-195.5131 438.2437,-156.5993 411.8174,-131.4094"/>
<polygon fill="#000000" stroke="#000000" points="414.0935,-128.7437 404.4402,-124.3774 409.2637,-133.8106 414.0935,-128.7437"/>
<text text-anchor="middle" x="470.1052" y="-166" font-family="Times,serif" font-size="14.00" fill="#000000">call</text>
</g>
<!-- group&#45;updater -->
<g id="node14" class="node">
<title>group-updater</title>
<ellipse fill="none" stroke="#000000" cx="531" cy="-106.8" rx="65.9755" ry="18"/>
<text text-anchor="middle" x="531" y="-102.6" font-family="Times,serif" font-size="14.00" fill="#000000">group-updater</text>
</g>
<!-- action&#45;\nexecutor&#45;&gt;group&#45;updater -->
<g id="edge20" class="edge">
<title>action-\nexecutor-&gt;group-updater</title>
<path fill="none" stroke="#000000" d="M531,-215.3649C531,-191.6721 531,-158.6743 531,-135.292"/>
<polygon fill="#000000" stroke="#000000" points="534.5001,-134.9814 531,-124.9814 527.5001,-134.9814 534.5001,-134.9814"/>
<text text-anchor="middle" x="541.1052" y="-166" font-family="Times,serif" font-size="14.00" fill="#000000">call</text>
</g>
<!-- crm&#45;updater -->
<g id="node15" class="node">
<title>crm-updater</title>
<ellipse fill="none" stroke="#000000" cx="673" cy="-106.8" rx="58.4454" ry="18"/>
<text text-anchor="middle" x="673" y="-102.6" font-family="Times,serif" font-size="14.00" fill="#000000">crm-updater</text>
</g>
<!-- action&#45;\nexecutor&#45;&gt;crm&#45;updater -->
<g id="edge21" class="edge">
<title>action-\nexecutor-&gt;crm-updater</title>
<path fill="none" stroke="#000000" d="M556.3868,-220.3055C582.2347,-195.1463 622.0698,-156.3729 647.8368,-131.2926"/>
<polygon fill="#000000" stroke="#000000" points="650.3044,-133.775 655.0291,-124.292 645.4219,-128.7589 650.3044,-133.775"/>
<text text-anchor="middle" x="626.1052" y="-166" font-family="Times,serif" font-size="14.00" fill="#000000">call</text>
</g>
<!-- aws/twilio -->
<g id="node17" class="node">
<title>aws/twilio</title>
<ellipse fill="none" stroke="#000000" cx="253" cy="-18" rx="51.0377" ry="18"/>
<text text-anchor="middle" x="253" y="-13.8" font-family="Times,serif" font-size="14.00" fill="#000000">aws/twilio</text>
</g>
<!-- sms&#45;sender&#45;&gt;aws/twilio -->
<g id="edge23" class="edge">
<title>sms-sender-&gt;aws/twilio</title>
<path fill="none" stroke="#000000" d="M253,-88.4006C253,-76.2949 253,-60.2076 253,-46.4674"/>
<polygon fill="#000000" stroke="#000000" points="256.5001,-46.072 253,-36.072 249.5001,-46.0721 256.5001,-46.072"/>
<text text-anchor="middle" x="273.9881" y="-58.2" font-family="Times,serif" font-size="14.00" fill="#000000">rest-api</text>
</g>
<!-- aws/sendgrid -->
<g id="node16" class="node">
<title>aws/sendgrid</title>
<ellipse fill="none" stroke="#000000" cx="385" cy="-18" rx="61.977" ry="18"/>
<text text-anchor="middle" x="385" y="-13.8" font-family="Times,serif" font-size="14.00" fill="#000000">aws/sendgrid</text>
</g>
<!-- email&#45;sender&#45;&gt;aws/sendgrid -->
<g id="edge22" class="edge">
<title>email-sender-&gt;aws/sendgrid</title>
<path fill="none" stroke="#000000" d="M385.7928,-88.4006C385.6565,-76.2949 385.4753,-60.2076 385.3206,-46.4674"/>
<polygon fill="#000000" stroke="#000000" points="388.816,-46.0319 385.2035,-36.072 381.8164,-46.1108 388.816,-46.0319"/>
<text text-anchor="middle" x="405.9881" y="-58.2" font-family="Times,serif" font-size="14.00" fill="#000000">rest-api</text>
</g>
<!-- insided&#45;system -->
<g id="node18" class="node">
<title>insided-system</title>
<ellipse fill="none" stroke="#000000" cx="534" cy="-18" rx="68.9371" ry="18"/>
<text text-anchor="middle" x="534" y="-13.8" font-family="Times,serif" font-size="14.00" fill="#000000">insided-system</text>
</g>
<!-- group&#45;updater&#45;&gt;insided&#45;system -->
<g id="edge24" class="edge">
<title>group-updater-&gt;insided-system</title>
<path fill="none" stroke="#000000" d="M531.6216,-88.4006C532.0306,-76.2949 532.5741,-60.2076 533.0383,-46.4674"/>
<polygon fill="#000000" stroke="#000000" points="536.5497,-46.1845 533.3895,-36.072 529.5537,-45.9481 536.5497,-46.1845"/>
<text text-anchor="middle" x="552.9881" y="-58.2" font-family="Times,serif" font-size="14.00" fill="#000000">rest-api</text>
</g>
<!-- salesforce -->
<g id="node19" class="node">
<title>salesforce</title>
<ellipse fill="none" stroke="#000000" cx="673" cy="-18" rx="49.7729" ry="18"/>
<text text-anchor="middle" x="673" y="-13.8" font-family="Times,serif" font-size="14.00" fill="#000000">salesforce</text>
</g>
<!-- crm&#45;updater&#45;&gt;salesforce -->
<g id="edge25" class="edge">
<title>crm-updater-&gt;salesforce</title>
<path fill="none" stroke="#000000" d="M673,-88.4006C673,-76.2949 673,-60.2076 673,-46.4674"/>
<polygon fill="#000000" stroke="#000000" points="676.5001,-46.072 673,-36.072 669.5001,-46.0721 676.5001,-46.072"/>
<text text-anchor="middle" x="693.9881" y="-58.2" font-family="Times,serif" font-size="14.00" fill="#000000">rest-api</text>
</g>
<!-- insided -->
<g id="node20" class="node">
<title>insided</title>
<ellipse fill="none" stroke="#000000" cx="396" cy="-949.0427" rx="38.8632" ry="18"/>
<text text-anchor="middle" x="396" y="-944.8427" font-family="Times,serif" font-size="14.00" fill="#000000">insided</text>
</g>
<!-- insided&#45;&gt;segment&#45;rule&#45;\ntrigger&#45;\nservice -->
<g id="edge1" class="edge">
<title>insided-&gt;segment-rule-\ntrigger-\nservice</title>
<path fill="none" stroke="#000000" d="M412.2235,-932.5523C417.5873,-926.6593 423.3634,-919.7999 428,-913.0427 438.5985,-897.5969 448.4852,-879.6632 456.6788,-863.3424"/>
<polygon fill="#000000" stroke="#000000" points="460.0255,-864.4682 461.3,-853.9503 453.7446,-861.3778 460.0255,-864.4682"/>
<text text-anchor="middle" x="457.9881" y="-900.4427" font-family="Times,serif" font-size="14.00" fill="#000000">rest-api</text>
</g>
<!-- insided&#45;&gt;user&#45;rule&#45;\ntrigger&#45;\nservice -->
<g id="edge2" class="edge">
<title>insided-&gt;user-rule-\ntrigger-\nservice</title>
<path fill="none" stroke="#000000" d="M433.9342,-944.7095C504.4617,-936.1133 652.5561,-915.3663 696,-888.2427 707.6709,-880.9562 718.0154,-870.5174 726.6539,-859.7654"/>
<polygon fill="#000000" stroke="#000000" points="729.6508,-861.6068 732.9209,-851.5293 724.0801,-857.368 729.6508,-861.6068"/>
<text text-anchor="middle" x="698.9881" y="-900.4427" font-family="Times,serif" font-size="14.00" fill="#000000">rest-api</text>
</g>
<!-- insided&#45;&gt;rule&#45;\naction&#45;\nmanagement -->
<g id="edge3" class="edge">
<title>insided-&gt;rule-\naction-\nmanagement</title>
<path fill="none" stroke="#000000" d="M430.4197,-940.5313C463.8887,-931.2044 515.2136,-914.0461 554,-888.2427 566.5343,-879.904 578.5296,-868.9974 588.976,-858.1266"/>
<polygon fill="#000000" stroke="#000000" points="591.6954,-860.3422 595.9483,-850.6384 586.5723,-855.572 591.6954,-860.3422"/>
<text text-anchor="middle" x="558.9881" y="-900.4427" font-family="Times,serif" font-size="14.00" fill="#000000">rest-api</text>
</g>
<!-- insided&#45;&gt;user&#45;\nmanagement -->
<g id="edge4" class="edge">
<title>insided-&gt;user-\nmanagement</title>
<path fill="none" stroke="#000000" d="M357.1245,-946.2043C306.2472,-941.0449 215.7212,-926.8035 149,-888.2427 132.366,-878.6293 117.1475,-863.9675 105.1035,-850.2164"/>
<polygon fill="#000000" stroke="#000000" points="107.5187,-847.6516 98.3923,-842.2701 102.1708,-852.1683 107.5187,-847.6516"/>
<text text-anchor="middle" x="220.9881" y="-900.4427" font-family="Times,serif" font-size="14.00" fill="#000000">rest-api</text>
</g>
<!-- insided&#45;&gt;segment&#45;\nmanagement -->
<g id="edge5" class="edge">
<title>insided-&gt;segment-\nmanagement</title>
<path fill="none" stroke="#000000" d="M370.5721,-935.2444C358.5247,-928.633 343.9699,-920.5387 331.0238,-913.0427 312.586,-902.367 306.583,-901.6192 290,-888.2427 275.6073,-876.633 261.3017,-862.1563 249.41,-849.0872"/>
<polygon fill="#000000" stroke="#000000" points="251.9791,-846.7096 242.7048,-841.5873 246.7606,-851.3751 251.9791,-846.7096"/>
<text text-anchor="middle" x="351.9881" y="-900.4427" font-family="Times,serif" font-size="14.00" fill="#000000">rest-api</text>
</g>
<!-- insided&#45;&gt;segment&#45;\nquery&#45;\nservice -->
<g id="edge6" class="edge">
<title>insided-&gt;segment-\nquery-\nservice</title>
<path fill="none" stroke="#000000" d="M389.4932,-931.1297C383.2239,-913.8705 373.4513,-886.9671 364.858,-863.31"/>
<polygon fill="#000000" stroke="#000000" points="368.0894,-861.9545 361.3855,-853.7504 361.51,-864.3445 368.0894,-861.9545"/>
<text text-anchor="middle" x="402.9881" y="-900.4427" font-family="Times,serif" font-size="14.00" fill="#000000">rest-api</text>
</g>
</g>
</svg>