<?xml version="1.0" encoding="UTF-8" standalone="no"?><!DOCTYPE svg PUBLIC "-//W3C//DTD SVG 1.1//EN" "http://www.w3.org/Graphics/SVG/1.1/DTD/svg11.dtd"><!-- Generated by graphviz version 2.40.1 (20161225.0304)
 --><!-- Title: G Pages: 1 --><svg xmlns="http://www.w3.org/2000/svg" xmlns:xlink="http://www.w3.org/1999/xlink" width="682pt" height="951pt" viewBox="0.00 0.00 682.00 951.28">
<g id="graph0" class="graph" transform="scale(1 1) rotate(0) translate(4 947.2839)">
<title>G</title>
<polygon fill="#ffffff" stroke="transparent" points="-4,4 -4,-947.2839 678,-947.2839 678,4 -4,4"/>
<g id="clust1" class="cluster">
<title>cluster_Web</title>
<polygon fill="none" stroke="#000000" points="8,-741.0939 8,-864.4839 644,-864.4839 644,-741.0939 8,-741.0939"/>
<text text-anchor="middle" x="326" y="-847.8839" font-family="Times,serif" font-size="14.00" fill="#000000">Web</text>
</g>
<g id="clust2" class="cluster">
<title>cluster_Core</title>
<polygon fill="none" stroke="#000000" points="118,-80.8 118,-672.6939 666,-672.6939 666,-80.8 118,-80.8"/>
<text text-anchor="middle" x="392" y="-656.0939" font-family="Times,serif" font-size="14.00" fill="#000000">Core</text>
</g>
<!-- insided -->
<g id="node1" class="node">
<title>insided</title>
<ellipse fill="none" stroke="#000000" cx="347" cy="-925.2839" rx="38.8632" ry="18"/>
<text text-anchor="middle" x="347" y="-921.0839" font-family="Times,serif" font-size="14.00" fill="#000000">insided</text>
</g>
<!-- rule&#45;\ntrigger&#45;\nservice -->
<g id="node2" class="node">
<title>rule-\ntrigger-\nservice</title>
<ellipse fill="none" stroke="#000000" cx="595" cy="-790.3889" rx="40.9927" ry="41.0911"/>
<text text-anchor="middle" x="595" y="-802.9889" font-family="Times,serif" font-size="14.00" fill="#000000">rule-</text>
<text text-anchor="middle" x="595" y="-786.1889" font-family="Times,serif" font-size="14.00" fill="#000000">trigger-</text>
<text text-anchor="middle" x="595" y="-769.3889" font-family="Times,serif" font-size="14.00" fill="#000000">service</text>
</g>
<!-- insided&#45;&gt;rule&#45;\ntrigger&#45;\nservice -->
<g id="edge1" class="edge">
<title>insided-&gt;rule-\ntrigger-\nservice</title>
<path fill="none" stroke="#000000" d="M385.0398,-921.2536C427.6048,-915.1214 496.8896,-900.1216 545,-864.4839 555.2332,-856.9037 564.0436,-846.5695 571.2919,-836.0258"/>
<polygon fill="#000000" stroke="#000000" points="574.2677,-837.8695 576.7672,-827.5737 568.3927,-834.0636 574.2677,-837.8695"/>
<text text-anchor="middle" x="551.9881" y="-876.6839" font-family="Times,serif" font-size="14.00" fill="#000000">rest-api</text>
</g>
<!-- rule&#45;\nmanagement -->
<g id="node3" class="node">
<title>rule-\nmanagement</title>
<ellipse fill="none" stroke="#000000" cx="474" cy="-790.3889" rx="61.7866" ry="29.3315"/>
<text text-anchor="middle" x="474" y="-794.5889" font-family="Times,serif" font-size="14.00" fill="#000000">rule-</text>
<text text-anchor="middle" x="474" y="-777.7889" font-family="Times,serif" font-size="14.00" fill="#000000">management</text>
</g>
<!-- insided&#45;&gt;rule&#45;\nmanagement -->
<g id="edge2" class="edge">
<title>insided-&gt;rule-\nmanagement</title>
<path fill="none" stroke="#000000" d="M368.4186,-910.08C376.4545,-903.9824 385.46,-896.6583 393,-889.2839 412.8526,-869.8673 432.649,-845.8056 447.7015,-826.2781"/>
<polygon fill="#000000" stroke="#000000" points="450.57,-828.2884 453.8485,-818.2135 445.0029,-824.045 450.57,-828.2884"/>
<text text-anchor="middle" x="427.9881" y="-876.6839" font-family="Times,serif" font-size="14.00" fill="#000000">rest-api</text>
</g>
<!-- user&#45;\nmanagement -->
<g id="node4" class="node">
<title>user-\nmanagement</title>
<ellipse fill="none" stroke="#000000" cx="78" cy="-790.3889" rx="61.7866" ry="29.3315"/>
<text text-anchor="middle" x="78" y="-794.5889" font-family="Times,serif" font-size="14.00" fill="#000000">user-</text>
<text text-anchor="middle" x="78" y="-777.7889" font-family="Times,serif" font-size="14.00" fill="#000000">management</text>
</g>
<!-- insided&#45;&gt;user&#45;\nmanagement -->
<g id="edge3" class="edge">
<title>insided-&gt;user-\nmanagement</title>
<path fill="none" stroke="#000000" d="M309.6329,-919.6364C267.9835,-912.0696 199.8163,-895.8027 149,-864.4839 132.7713,-854.482 117.7053,-839.8968 105.6651,-826.307"/>
<polygon fill="#000000" stroke="#000000" points="108.1057,-823.7764 98.9397,-818.4627 102.7915,-828.3326 108.1057,-823.7764"/>
<text text-anchor="middle" x="215.9881" y="-876.6839" font-family="Times,serif" font-size="14.00" fill="#000000">rest-api</text>
</g>
<!-- segment&#45;\nmanagement -->
<g id="node5" class="node">
<title>segment-\nmanagement</title>
<ellipse fill="none" stroke="#000000" cx="220" cy="-790.3889" rx="61.7866" ry="29.3315"/>
<text text-anchor="middle" x="220" y="-794.5889" font-family="Times,serif" font-size="14.00" fill="#000000">segment-</text>
<text text-anchor="middle" x="220" y="-777.7889" font-family="Times,serif" font-size="14.00" fill="#000000">management</text>
</g>
<!-- insided&#45;&gt;segment&#45;\nmanagement -->
<g id="edge4" class="edge">
<title>insided-&gt;segment-\nmanagement</title>
<path fill="none" stroke="#000000" d="M325.5937,-910.0779C317.562,-903.9801 308.5609,-896.6563 301.0238,-889.2839 281.1699,-869.8639 261.3677,-845.8022 246.3097,-826.2755"/>
<polygon fill="#000000" stroke="#000000" points="249.0073,-824.0409 240.1604,-818.2113 243.441,-828.2855 249.0073,-824.0409"/>
<text text-anchor="middle" x="321.9881" y="-876.6839" font-family="Times,serif" font-size="14.00" fill="#000000">rest-api</text>
</g>
<!-- segment&#45;\nquery&#45;\nservice -->
<g id="node6" class="node">
<title>segment-\nquery-\nservice</title>
<ellipse fill="none" stroke="#000000" cx="347" cy="-790.3889" rx="47.6988" ry="41.0911"/>
<text text-anchor="middle" x="347" y="-802.9889" font-family="Times,serif" font-size="14.00" fill="#000000">segment-</text>
<text text-anchor="middle" x="347" y="-786.1889" font-family="Times,serif" font-size="14.00" fill="#000000">query-</text>
<text text-anchor="middle" x="347" y="-769.3889" font-family="Times,serif" font-size="14.00" fill="#000000">service</text>
</g>
<!-- insided&#45;&gt;segment&#45;\nquery&#45;\nservice -->
<g id="edge5" class="edge">
<title>insided-&gt;segment-\nquery-\nservice</title>
<path fill="none" stroke="#000000" d="M347,-907.0914C347,-890.4402 347,-864.9827 347,-842.089"/>
<polygon fill="#000000" stroke="#000000" points="350.5001,-841.7915 347,-831.7915 343.5001,-841.7915 350.5001,-841.7915"/>
<text text-anchor="middle" x="367.9881" y="-876.6839" font-family="Times,serif" font-size="14.00" fill="#000000">rest-api</text>
</g>
<!-- ondemand&#45;\nactioner -->
<g id="node7" class="node">
<title>ondemand-\nactioner</title>
<ellipse fill="none" stroke="#000000" cx="525" cy="-411.4469" rx="55.6956" ry="29.3315"/>
<text text-anchor="middle" x="525" y="-415.6469" font-family="Times,serif" font-size="14.00" fill="#000000">ondemand-</text>
<text text-anchor="middle" x="525" y="-398.8469" font-family="Times,serif" font-size="14.00" fill="#000000">actioner</text>
</g>
<!-- rule&#45;\ntrigger&#45;\nservice&#45;&gt;ondemand&#45;\nactioner -->
<g id="edge6" class="edge">
<title>rule-\ntrigger-\nservice-&gt;ondemand-\nactioner</title>
<path fill="none" stroke="#000000" stroke-dasharray="5,2" d="M592.7764,-748.9511C589.1949,-694.2324 580.4707,-595.1618 561,-512.6626 555.9656,-491.3313 547.9672,-468.2556 540.7869,-449.5321"/>
<polygon fill="#000000" stroke="#000000" points="544.0277,-448.2089 537.1267,-440.1699 537.5082,-450.7578 544.0277,-448.2089"/>
<text text-anchor="middle" x="597.8198" y="-550.4626" font-family="Times,serif" font-size="14.00" fill="#000000">rule</text>
<text text-anchor="middle" x="597.8198" y="-533.6626" font-family="Times,serif" font-size="14.00" fill="#000000">exec</text>
<text text-anchor="middle" x="597.8198" y="-516.8626" font-family="Times,serif" font-size="14.00" fill="#000000">requested</text>
</g>
<!-- rule&#45;\nmanagement&#45;&gt;ondemand&#45;\nactioner -->
<g id="edge9" class="edge">
<title>rule-\nmanagement-&gt;ondemand-\nactioner</title>
<path fill="none" stroke="#000000" stroke-dasharray="5,2" d="M477.9594,-760.9693C487.0457,-693.4565 509.3999,-527.3596 519.6759,-451.0064"/>
<polygon fill="#000000" stroke="#000000" points="523.1779,-451.2253 521.0431,-440.8478 516.2404,-450.2916 523.1779,-451.2253"/>
<text text-anchor="middle" x="533.3219" y="-550.4626" font-family="Times,serif" font-size="14.00" fill="#000000">rule</text>
<text text-anchor="middle" x="533.3219" y="-533.6626" font-family="Times,serif" font-size="14.00" fill="#000000">changed</text>
<text text-anchor="middle" x="533.3219" y="-516.8626" font-family="Times,serif" font-size="14.00" fill="#000000">event</text>
</g>
<!-- segment&#45;change&#45;\nactioner -->
<g id="node9" class="node">
<title>segment-change-\nactioner</title>
<ellipse fill="none" stroke="#000000" cx="372" cy="-411.4469" rx="78.8546" ry="29.3315"/>
<text text-anchor="middle" x="372" y="-415.6469" font-family="Times,serif" font-size="14.00" fill="#000000">segment-change-</text>
<text text-anchor="middle" x="372" y="-398.8469" font-family="Times,serif" font-size="14.00" fill="#000000">actioner</text>
</g>
<!-- rule&#45;\nmanagement&#45;&gt;segment&#45;change&#45;\nactioner -->
<g id="edge13" class="edge">
<title>rule-\nmanagement-&gt;segment-change-\nactioner</title>
<path fill="none" stroke="#000000" stroke-dasharray="5,2" d="M471.4215,-760.7244C464.7792,-685.1602 447.172,-490.4833 441,-477.8626 435.0046,-465.603 425.7608,-454.3775 415.9678,-444.7832"/>
<polygon fill="#000000" stroke="#000000" points="418.1271,-442.012 408.4167,-437.7742 413.3649,-447.1425 418.1271,-442.012"/>
<text text-anchor="middle" x="475.3219" y="-550.4626" font-family="Times,serif" font-size="14.00" fill="#000000">rule</text>
<text text-anchor="middle" x="475.3219" y="-533.6626" font-family="Times,serif" font-size="14.00" fill="#000000">changed</text>
<text text-anchor="middle" x="475.3219" y="-516.8626" font-family="Times,serif" font-size="14.00" fill="#000000">event</text>
</g>
<!-- segment&#45;change&#45;\npropagation -->
<g id="node8" class="node">
<title>segment-change-\npropagation</title>
<ellipse fill="none" stroke="#000000" cx="220" cy="-610.4782" rx="78.8546" ry="29.3315"/>
<text text-anchor="middle" x="220" y="-614.6782" font-family="Times,serif" font-size="14.00" fill="#000000">segment-change-</text>
<text text-anchor="middle" x="220" y="-597.8782" font-family="Times,serif" font-size="14.00" fill="#000000">propagation</text>
</g>
<!-- user&#45;\nmanagement&#45;&gt;segment&#45;change&#45;\npropagation -->
<g id="edge10" class="edge">
<title>user-\nmanagement-&gt;segment-change-\npropagation</title>
<path fill="none" stroke="#000000" stroke-dasharray="5,2" d="M99.8763,-762.6721C124.4362,-731.5553 164.3778,-680.9502 191.3958,-646.7191"/>
<polygon fill="#000000" stroke="#000000" points="194.1818,-648.8385 197.63,-638.8205 188.6871,-644.5016 194.1818,-648.8385"/>
<text text-anchor="middle" x="185.3219" y="-718.4939" font-family="Times,serif" font-size="14.00" fill="#000000">user</text>
<text text-anchor="middle" x="185.3219" y="-701.6939" font-family="Times,serif" font-size="14.00" fill="#000000">changed</text>
<text text-anchor="middle" x="185.3219" y="-684.8939" font-family="Times,serif" font-size="14.00" fill="#000000">event</text>
</g>
<!-- segment&#45;\nmanagement&#45;&gt;segment&#45;change&#45;\npropagation -->
<g id="edge7" class="edge">
<title>segment-\nmanagement-&gt;segment-change-\npropagation</title>
<path fill="none" stroke="#000000" stroke-dasharray="5,2" d="M220,-760.6803C220,-730.511 220,-683.6093 220,-650.249"/>
<polygon fill="#000000" stroke="#000000" points="223.5001,-649.9319 220,-639.9319 216.5001,-649.9319 223.5001,-649.9319"/>
<text text-anchor="middle" x="245.2728" y="-718.4939" font-family="Times,serif" font-size="14.00" fill="#000000">segmemt</text>
<text text-anchor="middle" x="245.2728" y="-701.6939" font-family="Times,serif" font-size="14.00" fill="#000000">changed</text>
<text text-anchor="middle" x="245.2728" y="-684.8939" font-family="Times,serif" font-size="14.00" fill="#000000">event</text>
</g>
<!-- segment&#45;\nquery&#45;\nservice&#45;&gt;segment&#45;change&#45;\npropagation -->
<g id="edge8" class="edge">
<title>segment-\nquery-\nservice-&gt;segment-change-\npropagation</title>
<path fill="none" stroke="#000000" d="M324.2354,-754.0597C310.4271,-732.4473 292.2044,-704.6579 275,-680.6939 266.9402,-669.4673 257.8152,-657.5343 249.3474,-646.7519"/>
<polygon fill="#000000" stroke="#000000" points="251.9769,-644.4344 243.0287,-638.7617 246.4863,-648.7765 251.9769,-644.4344"/>
<text text-anchor="middle" x="322.9376" y="-701.6939" font-family="Times,serif" font-size="14.00" fill="#000000">query</text>
</g>
<!-- action&#45;\nexecutor -->
<g id="node10" class="node">
<title>action-\nexecutor</title>
<ellipse fill="none" stroke="#000000" cx="432" cy="-245.0156" rx="45.2857" ry="29.3315"/>
<text text-anchor="middle" x="432" y="-249.2156" font-family="Times,serif" font-size="14.00" fill="#000000">action-</text>
<text text-anchor="middle" x="432" y="-232.4156" font-family="Times,serif" font-size="14.00" fill="#000000">executor</text>
</g>
<!-- ondemand&#45;\nactioner&#45;&gt;action&#45;\nexecutor -->
<g id="edge15" class="edge">
<title>ondemand-\nactioner-&gt;action-\nexecutor</title>
<path fill="none" stroke="#000000" stroke-dasharray="5,2" d="M509.2238,-383.2141C493.6316,-355.3106 469.6972,-312.478 452.6096,-281.8983"/>
<polygon fill="#000000" stroke="#000000" points="455.4766,-279.8538 447.5432,-272.8315 449.3659,-283.2684 455.4766,-279.8538"/>
<text text-anchor="middle" x="504.1052" y="-332.4313" font-family="Times,serif" font-size="14.00" fill="#000000">action</text>
<text text-anchor="middle" x="504.1052" y="-315.6313" font-family="Times,serif" font-size="14.00" fill="#000000">task</text>
</g>
<!-- segment&#45;change&#45;\npropagation&#45;&gt;ondemand&#45;\nactioner -->
<g id="edge11" class="edge">
<title>segment-change-\npropagation-&gt;ondemand-\nactioner</title>
<path fill="none" stroke="#000000" stroke-dasharray="5,2" d="M253.7795,-583.5932C289.482,-555.7057 347.9148,-511.5469 401.3842,-477.8626 424.9363,-463.0254 452.0893,-448.2023 474.9373,-436.3365"/>
<polygon fill="#000000" stroke="#000000" points="476.8286,-439.2993 484.1153,-431.608 473.6227,-433.0766 476.8286,-439.2993"/>
<text text-anchor="middle" x="455.8079" y="-482.0626" font-family="Times,serif" font-size="14.00" fill="#000000">user-segment-event</text>
</g>
<!-- segment&#45;change&#45;\npropagation&#45;&gt;segment&#45;change&#45;\nactioner -->
<g id="edge12" class="edge">
<title>segment-change-\npropagation-&gt;segment-change-\nactioner</title>
<path fill="none" stroke="#000000" stroke-dasharray="5,2" d="M199.9504,-581.9098C182.5638,-553.2722 163.3671,-509.0682 185.3842,-477.8626 198.6827,-459.0141 249.2927,-441.6811 294.456,-429.4516"/>
<polygon fill="#000000" stroke="#000000" points="295.5238,-432.7895 304.2928,-426.8434 293.7297,-426.0233 295.5238,-432.7895"/>
<text text-anchor="middle" x="240.8079" y="-482.0626" font-family="Times,serif" font-size="14.00" fill="#000000">user-segment-event</text>
</g>
<!-- segment&#45;change&#45;\nactioner&#45;&gt;action&#45;\nexecutor -->
<g id="edge14" class="edge">
<title>segment-change-\nactioner-&gt;action-\nexecutor</title>
<path fill="none" stroke="#000000" stroke-dasharray="5,2" d="M382.5887,-382.0755C392.4724,-354.6595 407.2823,-313.5789 418.1108,-283.5423"/>
<polygon fill="#000000" stroke="#000000" points="421.5186,-284.4094 421.6176,-273.815 414.9335,-282.0353 421.5186,-284.4094"/>
<text text-anchor="middle" x="424.1052" y="-332.4313" font-family="Times,serif" font-size="14.00" fill="#000000">action</text>
<text text-anchor="middle" x="424.1052" y="-315.6313" font-family="Times,serif" font-size="14.00" fill="#000000">task</text>
</g>
<!-- sms&#45;sender -->
<g id="node11" class="node">
<title>sms-sender</title>
<ellipse fill="none" stroke="#000000" cx="180" cy="-106.8" rx="54.4508" ry="18"/>
<text text-anchor="middle" x="180" y="-102.6" font-family="Times,serif" font-size="14.00" fill="#000000">sms-sender</text>
</g>
<!-- action&#45;\nexecutor&#45;&gt;sms&#45;sender -->
<g id="edge16" class="edge">
<title>action-\nexecutor-&gt;sms-sender</title>
<path fill="none" stroke="#000000" d="M397.2251,-225.9425C349.9119,-199.9924 265.6108,-153.7554 217.1133,-127.1557"/>
<polygon fill="#000000" stroke="#000000" points="218.6531,-124.0084 208.2021,-122.2681 215.2868,-130.1459 218.6531,-124.0084"/>
<text text-anchor="middle" x="320.1052" y="-166" font-family="Times,serif" font-size="14.00" fill="#000000">call</text>
</g>
<!-- email&#45;sender -->
<g id="node12" class="node">
<title>email-sender</title>
<ellipse fill="none" stroke="#000000" cx="313" cy="-106.8" rx="60.8101" ry="18"/>
<text text-anchor="middle" x="313" y="-102.6" font-family="Times,serif" font-size="14.00" fill="#000000">email-sender</text>
</g>
<!-- action&#45;\nexecutor&#45;&gt;email&#45;sender -->
<g id="edge17" class="edge">
<title>action-\nexecutor-&gt;email-sender</title>
<path fill="none" stroke="#000000" d="M409.617,-219.0183C388.2039,-194.1475 356.1121,-156.8736 334.8712,-132.2028"/>
<polygon fill="#000000" stroke="#000000" points="337.2919,-129.6501 328.1148,-124.3555 331.9871,-134.2174 337.2919,-129.6501"/>
<text text-anchor="middle" x="384.1052" y="-166" font-family="Times,serif" font-size="14.00" fill="#000000">call</text>
</g>
<!-- group&#45;updater -->
<g id="node13" class="node">
<title>group-updater</title>
<ellipse fill="none" stroke="#000000" cx="458" cy="-106.8" rx="65.9755" ry="18"/>
<text text-anchor="middle" x="458" y="-102.6" font-family="Times,serif" font-size="14.00" fill="#000000">group-updater</text>
</g>
<!-- action&#45;\nexecutor&#45;&gt;group&#45;updater -->
<g id="edge18" class="edge">
<title>action-\nexecutor-&gt;group-updater</title>
<path fill="none" stroke="#000000" d="M437.5139,-215.7037C441.9865,-191.9273 448.2525,-158.6174 452.6739,-135.1134"/>
<polygon fill="#000000" stroke="#000000" points="456.1534,-135.5484 454.5625,-125.0737 449.2741,-134.2543 456.1534,-135.5484"/>
<text text-anchor="middle" x="457.1052" y="-166" font-family="Times,serif" font-size="14.00" fill="#000000">call</text>
</g>
<!-- crm&#45;updater -->
<g id="node14" class="node">
<title>crm-updater</title>
<ellipse fill="none" stroke="#000000" cx="600" cy="-106.8" rx="58.4454" ry="18"/>
<text text-anchor="middle" x="600" y="-102.6" font-family="Times,serif" font-size="14.00" fill="#000000">crm-updater</text>
</g>
<!-- action&#45;\nexecutor&#45;&gt;crm&#45;updater -->
<g id="edge19" class="edge">
<title>action-\nexecutor-&gt;crm-updater</title>
<path fill="none" stroke="#000000" d="M460.1194,-221.8815C490.9882,-196.4853 540.2832,-155.9298 571.3581,-130.3641"/>
<polygon fill="#000000" stroke="#000000" points="573.7274,-132.9471 579.2261,-123.8909 569.28,-127.5414 573.7274,-132.9471"/>
<text text-anchor="middle" x="542.1052" y="-166" font-family="Times,serif" font-size="14.00" fill="#000000">call</text>
</g>
<!-- aws/twilio -->
<g id="node16" class="node">
<title>aws/twilio</title>
<ellipse fill="none" stroke="#000000" cx="180" cy="-18" rx="51.0377" ry="18"/>
<text text-anchor="middle" x="180" y="-13.8" font-family="Times,serif" font-size="14.00" fill="#000000">aws/twilio</text>
</g>
<!-- sms&#45;sender&#45;&gt;aws/twilio -->
<g id="edge21" class="edge">
<title>sms-sender-&gt;aws/twilio</title>
<path fill="none" stroke="#000000" d="M180,-88.4006C180,-76.2949 180,-60.2076 180,-46.4674"/>
<polygon fill="#000000" stroke="#000000" points="183.5001,-46.072 180,-36.072 176.5001,-46.0721 183.5001,-46.072"/>
<text text-anchor="middle" x="200.9881" y="-58.2" font-family="Times,serif" font-size="14.00" fill="#000000">rest-api</text>
</g>
<!-- aws/sendgrid -->
<g id="node15" class="node">
<title>aws/sendgrid</title>
<ellipse fill="none" stroke="#000000" cx="312" cy="-18" rx="61.977" ry="18"/>
<text text-anchor="middle" x="312" y="-13.8" font-family="Times,serif" font-size="14.00" fill="#000000">aws/sendgrid</text>
</g>
<!-- email&#45;sender&#45;&gt;aws/sendgrid -->
<g id="edge20" class="edge">
<title>email-sender-&gt;aws/sendgrid</title>
<path fill="none" stroke="#000000" d="M312.7928,-88.4006C312.6565,-76.2949 312.4753,-60.2076 312.3206,-46.4674"/>
<polygon fill="#000000" stroke="#000000" points="315.816,-46.0319 312.2035,-36.072 308.8164,-46.1108 315.816,-46.0319"/>
<text text-anchor="middle" x="332.9881" y="-58.2" font-family="Times,serif" font-size="14.00" fill="#000000">rest-api</text>
</g>
<!-- insided&#45;system -->
<g id="node17" class="node">
<title>insided-system</title>
<ellipse fill="none" stroke="#000000" cx="461" cy="-18" rx="68.9371" ry="18"/>
<text text-anchor="middle" x="461" y="-13.8" font-family="Times,serif" font-size="14.00" fill="#000000">insided-system</text>
</g>
<!-- group&#45;updater&#45;&gt;insided&#45;system -->
<g id="edge22" class="edge">
<title>group-updater-&gt;insided-system</title>
<path fill="none" stroke="#000000" d="M458.6216,-88.4006C459.0306,-76.2949 459.5741,-60.2076 460.0383,-46.4674"/>
<polygon fill="#000000" stroke="#000000" points="463.5497,-46.1845 460.3895,-36.072 456.5537,-45.9481 463.5497,-46.1845"/>
<text text-anchor="middle" x="479.9881" y="-58.2" font-family="Times,serif" font-size="14.00" fill="#000000">rest-api</text>
</g>
<!-- salesforce -->
<g id="node18" class="node">
<title>salesforce</title>
<ellipse fill="none" stroke="#000000" cx="600" cy="-18" rx="49.7729" ry="18"/>
<text text-anchor="middle" x="600" y="-13.8" font-family="Times,serif" font-size="14.00" fill="#000000">salesforce</text>
</g>
<!-- crm&#45;updater&#45;&gt;salesforce -->
<g id="edge23" class="edge">
<title>crm-updater-&gt;salesforce</title>
<path fill="none" stroke="#000000" d="M600,-88.4006C600,-76.2949 600,-60.2076 600,-46.4674"/>
<polygon fill="#000000" stroke="#000000" points="603.5001,-46.072 600,-36.072 596.5001,-46.0721 603.5001,-46.072"/>
<text text-anchor="middle" x="620.9881" y="-58.2" font-family="Times,serif" font-size="14.00" fill="#000000">rest-api</text>
</g>
</g>
</svg>