<?xml version="1.0" encoding="UTF-8" standalone="no"?><!DOCTYPE svg PUBLIC "-//W3C//DTD SVG 1.1//EN" "http://www.w3.org/Graphics/SVG/1.1/DTD/svg11.dtd"><!-- Generated by graphviz version 2.40.1 (20161225.0304)
 --><!-- Title: G Pages: 1 --><svg xmlns="http://www.w3.org/2000/svg" xmlns:xlink="http://www.w3.org/1999/xlink" width="660pt" height="906pt" viewBox="0.00 0.00 660.00 906.08">
<g id="graph0" class="graph" transform="scale(1 1) rotate(0) translate(4 902.0839)">
<title>G</title>
<polygon fill="#ffffff" stroke="transparent" points="-4,4 -4,-902.0839 656,-902.0839 656,4 -4,4"/>
<g id="clust1" class="cluster">
<title>cluster_Web</title>
<polygon fill="none" stroke="#000000" points="8,-695.8939 8,-819.2839 644,-819.2839 644,-695.8939 8,-695.8939"/>
<text text-anchor="middle" x="326" y="-802.6839" font-family="Times,serif" font-size="14.00" fill="#000000">Web</text>
</g>
<g id="clust2" class="cluster">
<title>cluster_Core</title>
<polygon fill="none" stroke="#000000" points="19,-119.6 19,-661.0939 567,-661.0939 567,-119.6 19,-119.6"/>
<text text-anchor="middle" x="293" y="-644.4939" font-family="Times,serif" font-size="14.00" fill="#000000">Core</text>
</g>
<g id="clust3" class="cluster">
<title>cluster_External</title>
<polygon fill="none" stroke="#000000" points="23,-8 23,-84.8 557,-84.8 557,-8 23,-8"/>
<text text-anchor="middle" x="290" y="-68.2" font-family="Times,serif" font-size="14.00" fill="#000000">External systems</text>
</g>
<!-- insided -->
<g id="node1" class="node">
<title>insided</title>
<ellipse fill="none" stroke="#000000" cx="347" cy="-880.0839" rx="38.8632" ry="18"/>
<text text-anchor="middle" x="347" y="-875.8839" font-family="Times,serif" font-size="14.00" fill="#000000">insided</text>
</g>
<!-- rule&#45;\ntrigger&#45;\nservice -->
<g id="node2" class="node">
<title>rule-\ntrigger-\nservice</title>
<ellipse fill="none" stroke="#000000" cx="595" cy="-745.1889" rx="40.9927" ry="41.0911"/>
<text text-anchor="middle" x="595" y="-757.7889" font-family="Times,serif" font-size="14.00" fill="#000000">rule-</text>
<text text-anchor="middle" x="595" y="-740.9889" font-family="Times,serif" font-size="14.00" fill="#000000">trigger-</text>
<text text-anchor="middle" x="595" y="-724.1889" font-family="Times,serif" font-size="14.00" fill="#000000">service</text>
</g>
<!-- insided&#45;&gt;rule&#45;\ntrigger&#45;\nservice -->
<g id="edge1" class="edge">
<title>insided-&gt;rule-\ntrigger-\nservice</title>
<path fill="none" stroke="#000000" d="M385.0398,-876.0536C427.6048,-869.9214 496.8896,-854.9216 545,-819.2839 555.2332,-811.7037 564.0436,-801.3695 571.2919,-790.8258"/>
<polygon fill="#000000" stroke="#000000" points="574.2677,-792.6695 576.7672,-782.3737 568.3927,-788.8636 574.2677,-792.6695"/>
<text text-anchor="middle" x="551.9881" y="-831.4839" font-family="Times,serif" font-size="14.00" fill="#000000">rest-api</text>
</g>
<!-- rule&#45;\nmanagement -->
<g id="node3" class="node">
<title>rule-\nmanagement</title>
<ellipse fill="none" stroke="#000000" cx="474" cy="-745.1889" rx="61.7866" ry="29.3315"/>
<text text-anchor="middle" x="474" y="-749.3889" font-family="Times,serif" font-size="14.00" fill="#000000">rule-</text>
<text text-anchor="middle" x="474" y="-732.5889" font-family="Times,serif" font-size="14.00" fill="#000000">management</text>
</g>
<!-- insided&#45;&gt;rule&#45;\nmanagement -->
<g id="edge2" class="edge">
<title>insided-&gt;rule-\nmanagement</title>
<path fill="none" stroke="#000000" d="M368.4186,-864.88C376.4545,-858.7824 385.46,-851.4583 393,-844.0839 412.8526,-824.6673 432.649,-800.6056 447.7015,-781.0781"/>
<polygon fill="#000000" stroke="#000000" points="450.57,-783.0884 453.8485,-773.0135 445.0029,-778.845 450.57,-783.0884"/>
<text text-anchor="middle" x="427.9881" y="-831.4839" font-family="Times,serif" font-size="14.00" fill="#000000">rest-api</text>
</g>
<!-- user&#45;\nmanagement -->
<g id="node4" class="node">
<title>user-\nmanagement</title>
<ellipse fill="none" stroke="#000000" cx="78" cy="-745.1889" rx="61.7866" ry="29.3315"/>
<text text-anchor="middle" x="78" y="-749.3889" font-family="Times,serif" font-size="14.00" fill="#000000">user-</text>
<text text-anchor="middle" x="78" y="-732.5889" font-family="Times,serif" font-size="14.00" fill="#000000">management</text>
</g>
<!-- insided&#45;&gt;user&#45;\nmanagement -->
<g id="edge3" class="edge">
<title>insided-&gt;user-\nmanagement</title>
<path fill="none" stroke="#000000" d="M309.6329,-874.4364C267.9835,-866.8696 199.8163,-850.6027 149,-819.2839 132.7713,-809.282 117.7053,-794.6968 105.6651,-781.107"/>
<polygon fill="#000000" stroke="#000000" points="108.1057,-778.5764 98.9397,-773.2627 102.7915,-783.1326 108.1057,-778.5764"/>
<text text-anchor="middle" x="215.9881" y="-831.4839" font-family="Times,serif" font-size="14.00" fill="#000000">rest-api</text>
</g>
<!-- segment&#45;\nmanagement -->
<g id="node5" class="node">
<title>segment-\nmanagement</title>
<ellipse fill="none" stroke="#000000" cx="220" cy="-745.1889" rx="61.7866" ry="29.3315"/>
<text text-anchor="middle" x="220" y="-749.3889" font-family="Times,serif" font-size="14.00" fill="#000000">segment-</text>
<text text-anchor="middle" x="220" y="-732.5889" font-family="Times,serif" font-size="14.00" fill="#000000">management</text>
</g>
<!-- insided&#45;&gt;segment&#45;\nmanagement -->
<g id="edge4" class="edge">
<title>insided-&gt;segment-\nmanagement</title>
<path fill="none" stroke="#000000" d="M325.5937,-864.8779C317.562,-858.7801 308.5609,-851.4563 301.0238,-844.0839 281.1699,-824.6639 261.3677,-800.6022 246.3097,-781.0755"/>
<polygon fill="#000000" stroke="#000000" points="249.0073,-778.8409 240.1604,-773.0113 243.441,-783.0855 249.0073,-778.8409"/>
<text text-anchor="middle" x="321.9881" y="-831.4839" font-family="Times,serif" font-size="14.00" fill="#000000">rest-api</text>
</g>
<!-- segment&#45;\nquery&#45;\nservice -->
<g id="node6" class="node">
<title>segment-\nquery-\nservice</title>
<ellipse fill="none" stroke="#000000" cx="347" cy="-745.1889" rx="47.6988" ry="41.0911"/>
<text text-anchor="middle" x="347" y="-757.7889" font-family="Times,serif" font-size="14.00" fill="#000000">segment-</text>
<text text-anchor="middle" x="347" y="-740.9889" font-family="Times,serif" font-size="14.00" fill="#000000">query-</text>
<text text-anchor="middle" x="347" y="-724.1889" font-family="Times,serif" font-size="14.00" fill="#000000">service</text>
</g>
<!-- insided&#45;&gt;segment&#45;\nquery&#45;\nservice -->
<g id="edge5" class="edge">
<title>insided-&gt;segment-\nquery-\nservice</title>
<path fill="none" stroke="#000000" d="M347,-861.8914C347,-845.2402 347,-819.7827 347,-796.889"/>
<polygon fill="#000000" stroke="#000000" points="350.5001,-796.5915 347,-786.5915 343.5001,-796.5915 350.5001,-796.5915"/>
<text text-anchor="middle" x="367.9881" y="-831.4839" font-family="Times,serif" font-size="14.00" fill="#000000">rest-api</text>
</g>
<!-- ondemand&#45;\nactioner -->
<g id="node7" class="node">
<title>ondemand-\nactioner</title>
<ellipse fill="none" stroke="#000000" cx="483" cy="-433.4469" rx="55.6956" ry="29.3315"/>
<text text-anchor="middle" x="483" y="-437.6469" font-family="Times,serif" font-size="14.00" fill="#000000">ondemand-</text>
<text text-anchor="middle" x="483" y="-420.8469" font-family="Times,serif" font-size="14.00" fill="#000000">actioner</text>
</g>
<!-- rule&#45;\ntrigger&#45;\nservice&#45;&gt;ondemand&#45;\nactioner -->
<g id="edge6" class="edge">
<title>rule-\ntrigger-\nservice-&gt;ondemand-\nactioner</title>
<path fill="none" stroke="#000000" stroke-dasharray="5,2" d="M581.0416,-706.3369C559.4892,-646.3477 518.3579,-531.8625 496.8633,-472.0341"/>
<polygon fill="#000000" stroke="#000000" points="500.1379,-470.7968 493.4628,-462.5692 493.5501,-473.1636 500.1379,-470.7968"/>
<text text-anchor="middle" x="543.6585" y="-538.8626" font-family="Times,serif" font-size="14.00" fill="#000000">trigger</text>
</g>
<!-- rule&#45;\nmanagement&#45;&gt;ondemand&#45;\nactioner -->
<g id="edge9" class="edge">
<title>rule-\nmanagement-&gt;ondemand-\nactioner</title>
<path fill="none" stroke="#000000" stroke-dasharray="5,2" d="M474.8548,-715.5799C476.48,-659.2878 480.0163,-536.7968 481.8482,-473.3415"/>
<polygon fill="#000000" stroke="#000000" points="485.3476,-473.4112 482.1377,-463.3143 478.3505,-473.2091 485.3476,-473.4112"/>
<text text-anchor="middle" x="492.0449" y="-538.8626" font-family="Times,serif" font-size="14.00" fill="#000000">feed</text>
</g>
<!-- segment&#45;change&#45;\nactioner -->
<g id="node9" class="node">
<title>segment-change-\nactioner</title>
<ellipse fill="none" stroke="#000000" cx="330" cy="-433.4469" rx="78.8546" ry="29.3315"/>
<text text-anchor="middle" x="330" y="-437.6469" font-family="Times,serif" font-size="14.00" fill="#000000">segment-change-</text>
<text text-anchor="middle" x="330" y="-420.8469" font-family="Times,serif" font-size="14.00" fill="#000000">actioner</text>
</g>
<!-- rule&#45;\nmanagement&#45;&gt;segment&#45;change&#45;\nactioner -->
<g id="edge13" class="edge">
<title>rule-\nmanagement-&gt;segment-change-\nactioner</title>
<path fill="none" stroke="#000000" stroke-dasharray="5,2" d="M470.4389,-715.6594C463.1175,-658.5232 445.1041,-535.3437 422,-499.8626 412.653,-485.5084 399.0417,-473.2429 385.1412,-463.3034"/>
<polygon fill="#000000" stroke="#000000" points="386.7218,-460.1457 376.4843,-457.4173 382.7859,-465.9344 386.7218,-460.1457"/>
<text text-anchor="middle" x="452.0449" y="-538.8626" font-family="Times,serif" font-size="14.00" fill="#000000">feed</text>
</g>
<!-- segment&#45;change&#45;\npropagation -->
<g id="node8" class="node">
<title>segment-change-\npropagation</title>
<ellipse fill="none" stroke="#000000" cx="311" cy="-598.8782" rx="78.8546" ry="29.3315"/>
<text text-anchor="middle" x="311" y="-603.0782" font-family="Times,serif" font-size="14.00" fill="#000000">segment-change-</text>
<text text-anchor="middle" x="311" y="-586.2782" font-family="Times,serif" font-size="14.00" fill="#000000">propagation</text>
</g>
<!-- user&#45;\nmanagement&#45;&gt;segment&#45;change&#45;\npropagation -->
<g id="edge10" class="edge">
<title>user-\nmanagement-&gt;segment-change-\npropagation</title>
<path fill="none" stroke="#000000" stroke-dasharray="5,2" d="M112.3519,-720.647C123.8868,-712.5923 136.8969,-703.7069 149,-695.8939 185.2526,-672.4912 227.0524,-647.5069 259.1113,-628.7541"/>
<polygon fill="#000000" stroke="#000000" points="261.0089,-631.6991 267.8825,-623.6365 257.4813,-625.6529 261.0089,-631.6991"/>
<text text-anchor="middle" x="207.6585" y="-673.2939" font-family="Times,serif" font-size="14.00" fill="#000000">trigger</text>
</g>
<!-- segment&#45;\nmanagement&#45;&gt;segment&#45;change&#45;\npropagation -->
<g id="edge7" class="edge">
<title>segment-\nmanagement-&gt;segment-change-\npropagation</title>
<path fill="none" stroke="#000000" stroke-dasharray="5,2" d="M237.5457,-716.9787C251.8216,-694.0258 272.0919,-661.435 287.7235,-636.3024"/>
<polygon fill="#000000" stroke="#000000" points="290.7323,-638.0918 293.0417,-627.7517 284.7882,-634.3948 290.7323,-638.0918"/>
<text text-anchor="middle" x="283.6585" y="-673.2939" font-family="Times,serif" font-size="14.00" fill="#000000">trigger</text>
</g>
<!-- segment&#45;\nquery&#45;\nservice&#45;&gt;segment&#45;change&#45;\npropagation -->
<g id="edge8" class="edge">
<title>segment-\nquery-\nservice-&gt;segment-change-\npropagation</title>
<path fill="none" stroke="#000000" d="M336.972,-704.4332C331.8818,-683.7456 325.7257,-658.7261 320.6847,-638.2388"/>
<polygon fill="#000000" stroke="#000000" points="324.0237,-637.1598 318.2357,-628.2856 317.2264,-638.8323 324.0237,-637.1598"/>
<text text-anchor="middle" x="347.9376" y="-673.2939" font-family="Times,serif" font-size="14.00" fill="#000000">query</text>
</g>
<!-- action&#45;\nexecutor -->
<g id="node10" class="node">
<title>action-\nexecutor</title>
<ellipse fill="none" stroke="#000000" cx="352" cy="-283.8156" rx="45.2857" ry="29.3315"/>
<text text-anchor="middle" x="352" y="-288.0156" font-family="Times,serif" font-size="14.00" fill="#000000">action-</text>
<text text-anchor="middle" x="352" y="-271.2156" font-family="Times,serif" font-size="14.00" fill="#000000">executor</text>
</g>
<!-- ondemand&#45;\nactioner&#45;&gt;action&#45;\nexecutor -->
<g id="edge15" class="edge">
<title>ondemand-\nactioner-&gt;action-\nexecutor</title>
<path fill="none" stroke="#000000" stroke-dasharray="5,2" d="M459.5798,-406.6959C437.6766,-381.6775 404.8865,-344.2239 381.2675,-317.2457"/>
<polygon fill="#000000" stroke="#000000" points="383.781,-314.8032 374.5605,-309.5847 378.5142,-319.4142 383.781,-314.8032"/>
<text text-anchor="middle" x="435.2749" y="-354.4313" font-family="Times,serif" font-size="14.00" fill="#000000">task</text>
</g>
<!-- segment&#45;change&#45;\npropagation&#45;&gt;ondemand&#45;\nactioner -->
<g id="edge11" class="edge">
<title>segment-change-\npropagation-&gt;ondemand-\nactioner</title>
<path fill="none" stroke="#000000" stroke-dasharray="5,2" d="M339.7889,-571.1887C369.8024,-542.3214 416.83,-497.0899 448.7365,-466.4019"/>
<polygon fill="#000000" stroke="#000000" points="451.321,-468.7723 456.1021,-459.3176 446.4685,-463.7271 451.321,-468.7723"/>
<text text-anchor="middle" x="423.0449" y="-504.0626" font-family="Times,serif" font-size="14.00" fill="#000000">feed</text>
</g>
<!-- segment&#45;change&#45;\npropagation&#45;&gt;segment&#45;change&#45;\nactioner -->
<g id="edge12" class="edge">
<title>segment-change-\npropagation-&gt;segment-change-\nactioner</title>
<path fill="none" stroke="#000000" stroke-dasharray="5,2" d="M314.3968,-569.3024C317.4809,-542.4497 322.0531,-502.6396 325.4518,-473.0479"/>
<polygon fill="#000000" stroke="#000000" points="328.9367,-473.3792 326.6006,-463.0451 321.9824,-472.5804 328.9367,-473.3792"/>
<text text-anchor="middle" x="340.6585" y="-504.0626" font-family="Times,serif" font-size="14.00" fill="#000000">trigger</text>
</g>
<!-- segment&#45;change&#45;\nactioner&#45;&gt;action&#45;\nexecutor -->
<g id="edge14" class="edge">
<title>segment-change-\nactioner-&gt;action-\nexecutor</title>
<path fill="none" stroke="#000000" stroke-dasharray="5,2" d="M334.3465,-403.8846C337.7363,-380.8288 342.4765,-348.5887 346.1916,-323.3211"/>
<polygon fill="#000000" stroke="#000000" points="349.6706,-323.7193 347.6625,-313.3166 342.745,-322.701 349.6706,-323.7193"/>
<text text-anchor="middle" x="353.2749" y="-354.4313" font-family="Times,serif" font-size="14.00" fill="#000000">task</text>
</g>
<!-- sms&#45;sender -->
<g id="node11" class="node">
<title>sms-sender</title>
<ellipse fill="none" stroke="#000000" cx="81" cy="-145.6" rx="54.4508" ry="18"/>
<text text-anchor="middle" x="81" y="-141.4" font-family="Times,serif" font-size="14.00" fill="#000000">sms-sender</text>
</g>
<!-- action&#45;\nexecutor&#45;&gt;sms&#45;sender -->
<g id="edge16" class="edge">
<title>action-\nexecutor-&gt;sms-sender</title>
<path fill="none" stroke="#000000" d="M316.2928,-265.6042C265.448,-239.6723 172.5369,-192.2857 119.9629,-165.4719"/>
<polygon fill="#000000" stroke="#000000" points="121.4456,-162.2992 110.9471,-160.8737 118.2652,-168.535 121.4456,-162.2992"/>
<text text-anchor="middle" x="231.1052" y="-204.8" font-family="Times,serif" font-size="14.00" fill="#000000">call</text>
</g>
<!-- email&#45;sender -->
<g id="node12" class="node">
<title>email-sender</title>
<ellipse fill="none" stroke="#000000" cx="214" cy="-145.6" rx="60.8101" ry="18"/>
<text text-anchor="middle" x="214" y="-141.4" font-family="Times,serif" font-size="14.00" fill="#000000">email-sender</text>
</g>
<!-- action&#45;\nexecutor&#45;&gt;email&#45;sender -->
<g id="edge17" class="edge">
<title>action-\nexecutor-&gt;email-sender</title>
<path fill="none" stroke="#000000" d="M327.3284,-259.1055C302.3163,-234.0543 263.8276,-195.5055 238.7776,-170.4163"/>
<polygon fill="#000000" stroke="#000000" points="241.0071,-167.6956 231.4647,-163.092 236.0534,-172.6415 241.0071,-167.6956"/>
<text text-anchor="middle" x="295.1052" y="-204.8" font-family="Times,serif" font-size="14.00" fill="#000000">call</text>
</g>
<!-- group&#45;updater -->
<g id="node13" class="node">
<title>group-updater</title>
<ellipse fill="none" stroke="#000000" cx="359" cy="-145.6" rx="65.9755" ry="18"/>
<text text-anchor="middle" x="359" y="-141.4" font-family="Times,serif" font-size="14.00" fill="#000000">group-updater</text>
</g>
<!-- action&#45;\nexecutor&#45;&gt;group&#45;updater -->
<g id="edge18" class="edge">
<title>action-\nexecutor-&gt;group-updater</title>
<path fill="none" stroke="#000000" d="M353.5017,-254.1649C354.707,-230.3649 356.3879,-197.1755 357.5731,-173.7751"/>
<polygon fill="#000000" stroke="#000000" points="361.0688,-173.9457 358.0792,-163.7814 354.0778,-173.5915 361.0688,-173.9457"/>
<text text-anchor="middle" x="366.1052" y="-204.8" font-family="Times,serif" font-size="14.00" fill="#000000">call</text>
</g>
<!-- crm&#45;updater -->
<g id="node14" class="node">
<title>crm-updater</title>
<ellipse fill="none" stroke="#000000" cx="501" cy="-145.6" rx="58.4454" ry="18"/>
<text text-anchor="middle" x="501" y="-141.4" font-family="Times,serif" font-size="14.00" fill="#000000">crm-updater</text>
</g>
<!-- action&#45;\nexecutor&#45;&gt;crm&#45;updater -->
<g id="edge19" class="edge">
<title>action-\nexecutor-&gt;crm-updater</title>
<path fill="none" stroke="#000000" d="M378.2952,-259.4236C405.5171,-234.172 447.7869,-194.9617 474.9267,-169.7862"/>
<polygon fill="#000000" stroke="#000000" points="477.5413,-172.1348 482.4924,-162.768 472.7807,-167.0028 477.5413,-172.1348"/>
<text text-anchor="middle" x="451.1052" y="-204.8" font-family="Times,serif" font-size="14.00" fill="#000000">call</text>
</g>
<!-- aws/twilio -->
<g id="node16" class="node">
<title>aws/twilio</title>
<ellipse fill="none" stroke="#000000" cx="82" cy="-34" rx="51.0377" ry="18"/>
<text text-anchor="middle" x="82" y="-29.8" font-family="Times,serif" font-size="14.00" fill="#000000">aws/twilio</text>
</g>
<!-- sms&#45;sender&#45;&gt;aws/twilio -->
<g id="edge21" class="edge">
<title>sms-sender-&gt;aws/twilio</title>
<path fill="none" stroke="#000000" d="M81.1651,-127.1715C81.3231,-109.539 81.5637,-82.6924 81.7461,-62.3391"/>
<polygon fill="#000000" stroke="#000000" points="85.2481,-62.1166 81.8379,-52.0856 78.2484,-62.0538 85.2481,-62.1166"/>
<text text-anchor="middle" x="102.9881" y="-97" font-family="Times,serif" font-size="14.00" fill="#000000">rest-api</text>
</g>
<!-- aws/sendgrid -->
<g id="node15" class="node">
<title>aws/sendgrid</title>
<ellipse fill="none" stroke="#000000" cx="213" cy="-34" rx="61.977" ry="18"/>
<text text-anchor="middle" x="213" y="-29.8" font-family="Times,serif" font-size="14.00" fill="#000000">aws/sendgrid</text>
</g>
<!-- email&#45;sender&#45;&gt;aws/sendgrid -->
<g id="edge20" class="edge">
<title>email-sender-&gt;aws/sendgrid</title>
<path fill="none" stroke="#000000" d="M213.8349,-127.1715C213.6769,-109.539 213.4363,-82.6924 213.2539,-62.3391"/>
<polygon fill="#000000" stroke="#000000" points="216.7516,-62.0538 213.1621,-52.0856 209.7519,-62.1166 216.7516,-62.0538"/>
<text text-anchor="middle" x="233.9881" y="-97" font-family="Times,serif" font-size="14.00" fill="#000000">rest-api</text>
</g>
<!-- insided&#45;system -->
<g id="node17" class="node">
<title>insided-system</title>
<ellipse fill="none" stroke="#000000" cx="362" cy="-34" rx="68.9371" ry="18"/>
<text text-anchor="middle" x="362" y="-29.8" font-family="Times,serif" font-size="14.00" fill="#000000">insided-system</text>
</g>
<!-- group&#45;updater&#45;&gt;insided&#45;system -->
<g id="edge22" class="edge">
<title>group-updater-&gt;insided-system</title>
<path fill="none" stroke="#000000" d="M359.4954,-127.1715C359.9694,-109.539 360.6911,-82.6924 361.2382,-62.3391"/>
<polygon fill="#000000" stroke="#000000" points="364.7438,-62.176 361.5138,-52.0856 357.7463,-61.9879 364.7438,-62.176"/>
<text text-anchor="middle" x="380.9881" y="-97" font-family="Times,serif" font-size="14.00" fill="#000000">rest-api</text>
</g>
<!-- salesforce -->
<g id="node18" class="node">
<title>salesforce</title>
<ellipse fill="none" stroke="#000000" cx="499" cy="-34" rx="49.7729" ry="18"/>
<text text-anchor="middle" x="499" y="-29.8" font-family="Times,serif" font-size="14.00" fill="#000000">salesforce</text>
</g>
<!-- crm&#45;updater&#45;&gt;salesforce -->
<g id="edge23" class="edge">
<title>crm-updater-&gt;salesforce</title>
<path fill="none" stroke="#000000" d="M500.6697,-127.1715C500.3537,-109.539 499.8726,-82.6924 499.5079,-62.3391"/>
<polygon fill="#000000" stroke="#000000" points="503.0028,-62.0212 499.3241,-52.0856 496.004,-62.1467 503.0028,-62.0212"/>
<text text-anchor="middle" x="520.9881" y="-97" font-family="Times,serif" font-size="14.00" fill="#000000">rest-api</text>
</g>
</g>
</svg>