<?xml version="1.0" encoding="UTF-8" standalone="no"?><!DOCTYPE svg PUBLIC "-//W3C//DTD SVG 1.1//EN" "http://www.w3.org/Graphics/SVG/1.1/DTD/svg11.dtd"><!-- Generated by graphviz version 2.40.1 (20161225.0304)
 --><!-- Title: G Pages: 1 --><svg xmlns="http://www.w3.org/2000/svg" xmlns:xlink="http://www.w3.org/1999/xlink" width="689pt" height="975pt" viewBox="0.00 0.00 689.00 975.04">
<g id="graph0" class="graph" transform="scale(1 1) rotate(0) translate(4 971.0427)">
<title>G</title>
<polygon fill="#ffffff" stroke="transparent" points="-4,4 -4,-971.0427 685,-971.0427 685,4 -4,4"/>
<g id="clust1" class="cluster">
<title>cluster_Web</title>
<polygon fill="none" stroke="#000000" points="8,-764.8526 8,-888.2427 644,-888.2427 644,-764.8526 8,-764.8526"/>
<text text-anchor="middle" x="326" y="-871.6427" font-family="Times,serif" font-size="14.00" fill="#000000">Web</text>
</g>
<g id="clust2" class="cluster">
<title>cluster_Core</title>
<polygon fill="none" stroke="#000000" points="125,-80.8 125,-696.4526 673,-696.4526 673,-80.8 125,-80.8"/>
<text text-anchor="middle" x="399" y="-679.8526" font-family="Times,serif" font-size="14.00" fill="#000000">Core</text>
</g>
<!-- rule&#45;\ntrigger&#45;\nservice -->
<g id="node1" class="node">
<title>rule-\ntrigger-\nservice</title>
<ellipse fill="none" stroke="#000000" cx="453" cy="-814.1477" rx="40.9927" ry="41.0911"/>
<text text-anchor="middle" x="453" y="-826.7477" font-family="Times,serif" font-size="14.00" fill="#000000">rule-</text>
<text text-anchor="middle" x="453" y="-809.9477" font-family="Times,serif" font-size="14.00" fill="#000000">trigger-</text>
<text text-anchor="middle" x="453" y="-793.1477" font-family="Times,serif" font-size="14.00" fill="#000000">service</text>
</g>
<!-- ondemand&#45;\nrule&#45;\nevaluator -->
<g id="node6" class="node">
<title>ondemand-\nrule-\nevaluator</title>
<ellipse fill="none" stroke="#000000" stroke-dasharray="5,2" cx="321" cy="-423.3263" rx="44.0926" ry="41.0911"/>
<text text-anchor="middle" x="321" y="-435.9263" font-family="Times,serif" font-size="14.00" fill="#000000">rule</text>
<text text-anchor="middle" x="321" y="-419.1263" font-family="Times,serif" font-size="14.00" fill="#000000">changed</text>
<text text-anchor="middle" x="321" y="-402.3263" font-family="Times,serif" font-size="14.00" fill="#000000">event</text>
</g>
<!-- rule&#45;\ntrigger&#45;\nservice&#45;&gt;ondemand&#45;\nrule&#45;\nevaluator -->
<g id="edge6" class="edge">
<title>rule-\ntrigger-\nservice-&gt;ondemand-\nrule-\nevaluator</title>
<path fill="none" stroke="#000000" stroke-dasharray="5,2" d="M454.991,-772.8725C458.4904,-693.1752 464.1149,-523.9527 450,-501.6214 429.9279,-469.865 405.8799,-484.4968 374,-464.6214 370.1659,-462.231 366.2786,-459.6186 362.4422,-456.906"/>
<polygon fill="#000000" stroke="#000000" points="364.3033,-453.9311 354.1648,-450.8552 360.1723,-459.5822 364.3033,-453.9311"/>
<text text-anchor="middle" x="484.8198" y="-574.2214" font-family="Times,serif" font-size="14.00" fill="#000000">rule</text>
<text text-anchor="middle" x="484.8198" y="-557.4214" font-family="Times,serif" font-size="14.00" fill="#000000">exec</text>
<text text-anchor="middle" x="484.8198" y="-540.6214" font-family="Times,serif" font-size="14.00" fill="#000000">requested</text>
</g>
<!-- rule&#45;\naction&#45;\nmanagement -->
<g id="node2" class="node">
<title>rule-\naction-\nmanagement</title>
<ellipse fill="none" stroke="#000000" cx="574" cy="-814.1477" rx="61.7866" ry="41.0911"/>
<text text-anchor="middle" x="574" y="-826.7477" font-family="Times,serif" font-size="14.00" fill="#000000">rule-</text>
<text text-anchor="middle" x="574" y="-809.9477" font-family="Times,serif" font-size="14.00" fill="#000000">action-</text>
<text text-anchor="middle" x="574" y="-793.1477" font-family="Times,serif" font-size="14.00" fill="#000000">management</text>
</g>
<!-- segment&#45;change&#45;\nrule&#45;\nevaluator -->
<g id="node8" class="node">
<title>segment-change-\nrule-\nevaluator</title>
<ellipse fill="none" stroke="#000000" cx="462" cy="-423.3263" rx="78.8546" ry="41.0911"/>
<text text-anchor="middle" x="462" y="-435.9263" font-family="Times,serif" font-size="14.00" fill="#000000">segment-change-</text>
<text text-anchor="middle" x="462" y="-419.1263" font-family="Times,serif" font-size="14.00" fill="#000000">rule-</text>
<text text-anchor="middle" x="462" y="-402.3263" font-family="Times,serif" font-size="14.00" fill="#000000">evaluator</text>
</g>
<!-- rule&#45;\naction&#45;\nmanagement&#45;&gt;segment&#45;change&#45;\nrule&#45;\nevaluator -->
<g id="edge12" class="edge">
<title>rule-\naction-\nmanagement-&gt;segment-change-\nrule-\nevaluator</title>
<path fill="none" stroke="#000000" stroke-dasharray="5,2" d="M570.1881,-772.6676C564.233,-717.4813 550.3391,-617.4537 522,-536.4214 514.2372,-514.2246 502.6432,-491.0586 491.7104,-471.5156"/>
<polygon fill="#000000" stroke="#000000" points="494.7409,-469.7644 486.7499,-462.8078 488.6586,-473.2293 494.7409,-469.7644"/>
<text text-anchor="middle" x="559.3219" y="-574.2214" font-family="Times,serif" font-size="14.00" fill="#000000">rule</text>
<text text-anchor="middle" x="559.3219" y="-557.4214" font-family="Times,serif" font-size="14.00" fill="#000000">changed</text>
<text text-anchor="middle" x="559.3219" y="-540.6214" font-family="Times,serif" font-size="14.00" fill="#000000">event</text>
</g>
<!-- user&#45;\nmanagement -->
<g id="node3" class="node">
<title>user-\nmanagement</title>
<ellipse fill="none" stroke="#000000" cx="332" cy="-814.1477" rx="61.7866" ry="29.3315"/>
<text text-anchor="middle" x="332" y="-818.3477" font-family="Times,serif" font-size="14.00" fill="#000000">user-</text>
<text text-anchor="middle" x="332" y="-801.5477" font-family="Times,serif" font-size="14.00" fill="#000000">management</text>
</g>
<!-- segment&#45;user&#45;\nmanagement -->
<g id="node7" class="node">
<title>segment-user-\nmanagement</title>
<ellipse fill="none" stroke="#000000" cx="205" cy="-634.237" rx="67.2691" ry="29.3315"/>
<text text-anchor="middle" x="205" y="-638.437" font-family="Times,serif" font-size="14.00" fill="#000000">segment-user-</text>
<text text-anchor="middle" x="205" y="-621.637" font-family="Times,serif" font-size="14.00" fill="#000000">management</text>
</g>
<!-- user&#45;\nmanagement&#45;&gt;segment&#45;user&#45;\nmanagement -->
<g id="edge9" class="edge">
<title>user-\nmanagement-&gt;segment-user-\nmanagement</title>
<path fill="none" stroke="#000000" stroke-dasharray="5,2" d="M312.1563,-786.0366C290.2255,-754.9692 254.8297,-704.8268 230.7709,-670.7445"/>
<polygon fill="#000000" stroke="#000000" points="233.5399,-668.5981 224.9136,-662.4469 227.8212,-672.635 233.5399,-668.5981"/>
<text text-anchor="middle" x="310.3219" y="-742.2526" font-family="Times,serif" font-size="14.00" fill="#000000">user</text>
<text text-anchor="middle" x="310.3219" y="-725.4526" font-family="Times,serif" font-size="14.00" fill="#000000">changed</text>
<text text-anchor="middle" x="310.3219" y="-708.6526" font-family="Times,serif" font-size="14.00" fill="#000000">event</text>
</g>
<!-- segment&#45;\nmanagement -->
<g id="node4" class="node">
<title>segment-\nmanagement</title>
<ellipse fill="none" stroke="#000000" cx="78" cy="-814.1477" rx="61.7866" ry="29.3315"/>
<text text-anchor="middle" x="78" y="-818.3477" font-family="Times,serif" font-size="14.00" fill="#000000">segment-</text>
<text text-anchor="middle" x="78" y="-801.5477" font-family="Times,serif" font-size="14.00" fill="#000000">management</text>
</g>
<!-- segment&#45;\nmanagement&#45;&gt;segment&#45;user&#45;\nmanagement -->
<g id="edge7" class="edge">
<title>segment-\nmanagement-&gt;segment-user-\nmanagement</title>
<path fill="none" stroke="#000000" stroke-dasharray="5,2" d="M95.8803,-785.7926C110.2007,-763.4034 131.0363,-731.5325 150.4544,-704.4526 158.5543,-693.1568 167.7047,-681.12 176.1643,-670.2612"/>
<polygon fill="#000000" stroke="#000000" points="179.0542,-672.2478 182.47,-662.2187 173.5455,-667.9287 179.0542,-672.2478"/>
<text text-anchor="middle" x="176.2728" y="-742.2526" font-family="Times,serif" font-size="14.00" fill="#000000">segmemt</text>
<text text-anchor="middle" x="176.2728" y="-725.4526" font-family="Times,serif" font-size="14.00" fill="#000000">changed</text>
<text text-anchor="middle" x="176.2728" y="-708.6526" font-family="Times,serif" font-size="14.00" fill="#000000">event</text>
</g>
<!-- segment&#45;\nquery&#45;\nservice -->
<g id="node5" class="node">
<title>segment-\nquery-\nservice</title>
<ellipse fill="none" stroke="#000000" cx="205" cy="-814.1477" rx="47.6988" ry="41.0911"/>
<text text-anchor="middle" x="205" y="-826.7477" font-family="Times,serif" font-size="14.00" fill="#000000">segment-</text>
<text text-anchor="middle" x="205" y="-809.9477" font-family="Times,serif" font-size="14.00" fill="#000000">query-</text>
<text text-anchor="middle" x="205" y="-793.1477" font-family="Times,serif" font-size="14.00" fill="#000000">service</text>
</g>
<!-- segment&#45;\nquery&#45;\nservice&#45;&gt;segment&#45;user&#45;\nmanagement -->
<g id="edge8" class="edge">
<title>segment-\nquery-\nservice-&gt;segment-user-\nmanagement</title>
<path fill="none" stroke="#000000" d="M205,-772.4203C205,-742.7439 205,-703.1249 205,-673.9197"/>
<polygon fill="#000000" stroke="#000000" points="208.5001,-673.6687 205,-663.6687 201.5001,-673.6687 208.5001,-673.6687"/>
<text text-anchor="middle" x="220.9376" y="-725.4526" font-family="Times,serif" font-size="14.00" fill="#000000">query</text>
</g>
<!-- action&#45;\nexecutor -->
<g id="node9" class="node">
<title>action-\nexecutor</title>
<ellipse fill="none" stroke="#000000" cx="392" cy="-245.0156" rx="45.2857" ry="29.3315"/>
<text text-anchor="middle" x="392" y="-249.2156" font-family="Times,serif" font-size="14.00" fill="#000000">action-</text>
<text text-anchor="middle" x="392" y="-232.4156" font-family="Times,serif" font-size="14.00" fill="#000000">executor</text>
</g>
<!-- ondemand&#45;\nrule&#45;\nevaluator&#45;&gt;action&#45;\nexecutor -->
<g id="edge14" class="edge">
<title>ondemand-\nrule-\nevaluator-&gt;action-\nexecutor</title>
<path fill="none" stroke="#000000" stroke-dasharray="5,2" d="M336.5813,-384.1953C348.5371,-354.169 364.9497,-312.9503 376.8075,-283.1704"/>
<polygon fill="#000000" stroke="#000000" points="380.1935,-284.1277 380.6412,-273.5423 373.6901,-281.5381 380.1935,-284.1277"/>
<text text-anchor="middle" x="376.6599" y="-332.4313" font-family="Times,serif" font-size="14.00" fill="#000000">user</text>
<text text-anchor="middle" x="376.6599" y="-315.6313" font-family="Times,serif" font-size="14.00" fill="#000000">task</text>
</g>
<!-- segment&#45;user&#45;\nmanagement&#45;&gt;ondemand&#45;\nrule&#45;\nevaluator -->
<g id="edge10" class="edge">
<title>segment-user-\nmanagement-&gt;ondemand-\nrule-\nevaluator</title>
<path fill="none" stroke="#000000" stroke-dasharray="5,2" d="M193.7973,-605.0958C184.8771,-576.8153 176.5607,-533.5987 194.3842,-501.6214 210.4238,-472.8446 241.8828,-453.3134 269.4288,-440.9552"/>
<polygon fill="#000000" stroke="#000000" points="271.154,-444.0244 278.9773,-436.8797 268.406,-437.5863 271.154,-444.0244"/>
<text text-anchor="middle" x="248.8079" y="-505.8214" font-family="Times,serif" font-size="14.00" fill="#000000">user-segment-event</text>
</g>
<!-- segment&#45;user&#45;\nmanagement&#45;&gt;segment&#45;change&#45;\nrule&#45;\nevaluator -->
<g id="edge11" class="edge">
<title>segment-user-\nmanagement-&gt;segment-change-\nrule-\nevaluator</title>
<path fill="none" stroke="#000000" stroke-dasharray="5,2" d="M236.771,-608.1637C280.4582,-572.3111 359.5508,-507.4027 411.4236,-464.8326"/>
<polygon fill="#000000" stroke="#000000" points="413.6787,-467.5096 419.1885,-458.4602 409.238,-462.0985 413.6787,-467.5096"/>
<text text-anchor="middle" x="419.8079" y="-505.8214" font-family="Times,serif" font-size="14.00" fill="#000000">user-segment-event</text>
</g>
<!-- segment&#45;change&#45;\nrule&#45;\nevaluator&#45;&gt;action&#45;\nexecutor -->
<g id="edge13" class="edge">
<title>segment-change-\nrule-\nevaluator-&gt;action-\nexecutor</title>
<path fill="none" stroke="#000000" stroke-dasharray="5,2" d="M446.1159,-382.8649C434.3738,-352.9543 418.491,-312.4962 406.9714,-283.1522"/>
<polygon fill="#000000" stroke="#000000" points="410.1565,-281.6876 403.2443,-273.6582 403.6406,-284.2456 410.1565,-281.6876"/>
<text text-anchor="middle" x="442.6599" y="-332.4313" font-family="Times,serif" font-size="14.00" fill="#000000">user</text>
<text text-anchor="middle" x="442.6599" y="-315.6313" font-family="Times,serif" font-size="14.00" fill="#000000">task</text>
</g>
<!-- sms&#45;sender -->
<g id="node10" class="node">
<title>sms-sender</title>
<ellipse fill="none" stroke="#000000" cx="187" cy="-106.8" rx="54.4508" ry="18"/>
<text text-anchor="middle" x="187" y="-102.6" font-family="Times,serif" font-size="14.00" fill="#000000">sms-sender</text>
</g>
<!-- action&#45;\nexecutor&#45;&gt;sms&#45;sender -->
<g id="edge15" class="edge">
<title>action-\nexecutor-&gt;sms-sender</title>
<path fill="none" stroke="#000000" d="M360.418,-223.7224C322.2018,-197.9561 258.1879,-154.7965 219.5445,-128.7423"/>
<polygon fill="#000000" stroke="#000000" points="221.4823,-125.8276 211.2342,-123.1393 217.5691,-131.6316 221.4823,-125.8276"/>
<text text-anchor="middle" x="302.1052" y="-166" font-family="Times,serif" font-size="14.00" fill="#000000">call</text>
</g>
<!-- email&#45;sender -->
<g id="node11" class="node">
<title>email-sender</title>
<ellipse fill="none" stroke="#000000" cx="320" cy="-106.8" rx="60.8101" ry="18"/>
<text text-anchor="middle" x="320" y="-102.6" font-family="Times,serif" font-size="14.00" fill="#000000">email-sender</text>
</g>
<!-- action&#45;\nexecutor&#45;&gt;email&#45;sender -->
<g id="edge16" class="edge">
<title>action-\nexecutor-&gt;email-sender</title>
<path fill="none" stroke="#000000" d="M377.4297,-217.0456C364.7332,-192.6727 346.4455,-157.5663 333.9389,-133.558"/>
<polygon fill="#000000" stroke="#000000" points="337.0147,-131.8866 329.2906,-124.6348 330.8066,-135.1207 337.0147,-131.8866"/>
<text text-anchor="middle" x="367.1052" y="-166" font-family="Times,serif" font-size="14.00" fill="#000000">call</text>
</g>
<!-- group&#45;updater -->
<g id="node12" class="node">
<title>group-updater</title>
<ellipse fill="none" stroke="#000000" cx="465" cy="-106.8" rx="65.9755" ry="18"/>
<text text-anchor="middle" x="465" y="-102.6" font-family="Times,serif" font-size="14.00" fill="#000000">group-updater</text>
</g>
<!-- action&#45;\nexecutor&#45;&gt;group&#45;updater -->
<g id="edge17" class="edge">
<title>action-\nexecutor-&gt;group-updater</title>
<path fill="none" stroke="#000000" d="M406.7726,-217.0456C419.6455,-192.6727 438.1872,-157.5663 450.8675,-133.558"/>
<polygon fill="#000000" stroke="#000000" points="454.0049,-135.1119 455.5804,-124.6348 447.8152,-131.8427 454.0049,-135.1119"/>
<text text-anchor="middle" x="445.1052" y="-166" font-family="Times,serif" font-size="14.00" fill="#000000">call</text>
</g>
<!-- crm&#45;updater -->
<g id="node13" class="node">
<title>crm-updater</title>
<ellipse fill="none" stroke="#000000" cx="607" cy="-106.8" rx="58.4454" ry="18"/>
<text text-anchor="middle" x="607" y="-102.6" font-family="Times,serif" font-size="14.00" fill="#000000">crm-updater</text>
</g>
<!-- action&#45;\nexecutor&#45;&gt;crm&#45;updater -->
<g id="edge18" class="edge">
<title>action-\nexecutor-&gt;crm-updater</title>
<path fill="none" stroke="#000000" d="M424.6539,-224.0237C464.7095,-198.2734 532.2881,-154.8296 572.9646,-128.6801"/>
<polygon fill="#000000" stroke="#000000" points="574.9434,-131.5689 581.4625,-123.2171 571.158,-125.6807 574.9434,-131.5689"/>
<text text-anchor="middle" x="530.1052" y="-166" font-family="Times,serif" font-size="14.00" fill="#000000">call</text>
</g>
<!-- aws/twilio -->
<g id="node15" class="node">
<title>aws/twilio</title>
<ellipse fill="none" stroke="#000000" cx="187" cy="-18" rx="51.0377" ry="18"/>
<text text-anchor="middle" x="187" y="-13.8" font-family="Times,serif" font-size="14.00" fill="#000000">aws/twilio</text>
</g>
<!-- sms&#45;sender&#45;&gt;aws/twilio -->
<g id="edge20" class="edge">
<title>sms-sender-&gt;aws/twilio</title>
<path fill="none" stroke="#000000" d="M187,-88.4006C187,-76.2949 187,-60.2076 187,-46.4674"/>
<polygon fill="#000000" stroke="#000000" points="190.5001,-46.072 187,-36.072 183.5001,-46.0721 190.5001,-46.072"/>
<text text-anchor="middle" x="207.9881" y="-58.2" font-family="Times,serif" font-size="14.00" fill="#000000">rest-api</text>
</g>
<!-- aws/sendgrid -->
<g id="node14" class="node">
<title>aws/sendgrid</title>
<ellipse fill="none" stroke="#000000" cx="319" cy="-18" rx="61.977" ry="18"/>
<text text-anchor="middle" x="319" y="-13.8" font-family="Times,serif" font-size="14.00" fill="#000000">aws/sendgrid</text>
</g>
<!-- email&#45;sender&#45;&gt;aws/sendgrid -->
<g id="edge19" class="edge">
<title>email-sender-&gt;aws/sendgrid</title>
<path fill="none" stroke="#000000" d="M319.7928,-88.4006C319.6565,-76.2949 319.4753,-60.2076 319.3206,-46.4674"/>
<polygon fill="#000000" stroke="#000000" points="322.816,-46.0319 319.2035,-36.072 315.8164,-46.1108 322.816,-46.0319"/>
<text text-anchor="middle" x="339.9881" y="-58.2" font-family="Times,serif" font-size="14.00" fill="#000000">rest-api</text>
</g>
<!-- insided&#45;system -->
<g id="node16" class="node">
<title>insided-system</title>
<ellipse fill="none" stroke="#000000" cx="468" cy="-18" rx="68.9371" ry="18"/>
<text text-anchor="middle" x="468" y="-13.8" font-family="Times,serif" font-size="14.00" fill="#000000">insided-system</text>
</g>
<!-- group&#45;updater&#45;&gt;insided&#45;system -->
<g id="edge21" class="edge">
<title>group-updater-&gt;insided-system</title>
<path fill="none" stroke="#000000" d="M465.6216,-88.4006C466.0306,-76.2949 466.5741,-60.2076 467.0383,-46.4674"/>
<polygon fill="#000000" stroke="#000000" points="470.5497,-46.1845 467.3895,-36.072 463.5537,-45.9481 470.5497,-46.1845"/>
<text text-anchor="middle" x="486.9881" y="-58.2" font-family="Times,serif" font-size="14.00" fill="#000000">rest-api</text>
</g>
<!-- salesforce -->
<g id="node17" class="node">
<title>salesforce</title>
<ellipse fill="none" stroke="#000000" cx="607" cy="-18" rx="49.7729" ry="18"/>
<text text-anchor="middle" x="607" y="-13.8" font-family="Times,serif" font-size="14.00" fill="#000000">salesforce</text>
</g>
<!-- crm&#45;updater&#45;&gt;salesforce -->
<g id="edge22" class="edge">
<title>crm-updater-&gt;salesforce</title>
<path fill="none" stroke="#000000" d="M607,-88.4006C607,-76.2949 607,-60.2076 607,-46.4674"/>
<polygon fill="#000000" stroke="#000000" points="610.5001,-46.072 607,-36.072 603.5001,-46.0721 610.5001,-46.072"/>
<text text-anchor="middle" x="627.9881" y="-58.2" font-family="Times,serif" font-size="14.00" fill="#000000">rest-api</text>
</g>
<!-- insided -->
<g id="node18" class="node">
<title>insided</title>
<ellipse fill="none" stroke="#000000" cx="332" cy="-949.0427" rx="38.8632" ry="18"/>
<text text-anchor="middle" x="332" y="-944.8427" font-family="Times,serif" font-size="14.00" fill="#000000">insided</text>
</g>
<!-- insided&#45;&gt;rule&#45;\ntrigger&#45;\nservice -->
<g id="edge1" class="edge">
<title>insided-&gt;rule-\ntrigger-\nservice</title>
<path fill="none" stroke="#000000" d="M353.027,-933.4173C361.0149,-927.2679 370.0899,-920.0185 378,-913.0427 389.7383,-902.6909 393.0194,-900.2982 403,-888.2427 410.8088,-878.8105 418.554,-868.1535 425.533,-857.9228"/>
<polygon fill="#000000" stroke="#000000" points="428.541,-859.7214 431.1997,-849.4656 422.7257,-855.8249 428.541,-859.7214"/>
<text text-anchor="middle" x="415.9881" y="-900.4427" font-family="Times,serif" font-size="14.00" fill="#000000">rest-api</text>
</g>
<!-- insided&#45;&gt;rule&#45;\naction&#45;\nmanagement -->
<g id="edge2" class="edge">
<title>insided-&gt;rule-\naction-\nmanagement</title>
<path fill="none" stroke="#000000" d="M367.796,-941.8613C404.1567,-933.3504 460.9502,-916.6182 503,-888.2427 515.3592,-879.9027 527.2253,-869.0972 537.6,-858.3294"/>
<polygon fill="#000000" stroke="#000000" points="540.2614,-860.6076 544.5319,-850.9116 535.147,-855.8282 540.2614,-860.6076"/>
<text text-anchor="middle" x="506.9881" y="-900.4427" font-family="Times,serif" font-size="14.00" fill="#000000">rest-api</text>
</g>
<!-- insided&#45;&gt;user&#45;\nmanagement -->
<g id="edge3" class="edge">
<title>insided-&gt;user-\nmanagement</title>
<path fill="none" stroke="#000000" d="M332,-930.8502C332,-911.1929 332,-879.2625 332,-853.7661"/>
<polygon fill="#000000" stroke="#000000" points="335.5001,-853.6428 332,-843.6428 328.5001,-853.6429 335.5001,-853.6428"/>
<text text-anchor="middle" x="352.9881" y="-900.4427" font-family="Times,serif" font-size="14.00" fill="#000000">rest-api</text>
</g>
<!-- insided&#45;&gt;segment&#45;\nmanagement -->
<g id="edge4" class="edge">
<title>insided-&gt;segment-\nmanagement</title>
<path fill="none" stroke="#000000" d="M295.4475,-942.5651C256.5515,-934.4452 194.3534,-917.8585 148,-888.2427 132.0435,-878.0479 117.1968,-863.4311 105.3197,-849.8698"/>
<polygon fill="#000000" stroke="#000000" points="107.8223,-847.4094 98.6839,-842.0485 102.4846,-851.9381 107.8223,-847.4094"/>
<text text-anchor="middle" x="215.9881" y="-900.4427" font-family="Times,serif" font-size="14.00" fill="#000000">rest-api</text>
</g>
<!-- insided&#45;&gt;segment&#45;\nquery&#45;\nservice -->
<g id="edge5" class="edge">
<title>insided-&gt;segment-\nquery-\nservice</title>
<path fill="none" stroke="#000000" d="M310.9863,-933.414C303.0029,-927.2642 293.9322,-920.0154 286.0238,-913.0427 274.2787,-902.6873 271.3076,-900.0297 261,-888.2427 252.6245,-878.6651 244.0919,-867.9524 236.2947,-857.7141"/>
<polygon fill="#000000" stroke="#000000" points="239.0255,-855.522 230.2162,-849.6357 233.432,-859.7307 239.0255,-855.522"/>
<text text-anchor="middle" x="306.9881" y="-900.4427" font-family="Times,serif" font-size="14.00" fill="#000000">rest-api</text>
</g>
</g>
</svg>