<?xml version="1.0" encoding="UTF-8" standalone="no"?><!DOCTYPE svg PUBLIC "-//W3C//DTD SVG 1.1//EN" "http://www.w3.org/Graphics/SVG/1.1/DTD/svg11.dtd"><!-- Generated by graphviz version 2.40.1 (20161225.0304)
 --><!-- Title: G Pages: 1 --><svg xmlns="http://www.w3.org/2000/svg" xmlns:xlink="http://www.w3.org/1999/xlink" width="773pt" height="928pt" viewBox="0.00 0.00 773.00 928.20">
<g id="graph0" class="graph" transform="scale(1 1) rotate(0) translate(4 924.2015)">
<title>G</title>
<polygon fill="#ffffff" stroke="transparent" points="-4,4 -4,-924.2015 769,-924.2015 769,4 -4,4"/>
<text text-anchor="middle" x="382.5" y="-8.2" font-family="Times,serif" font-size="14.00" fill="#000000">Core</text>
<g id="clust1" class="cluster">
<title>cluster_UseCases</title>
<polygon fill="none" stroke="#ffffff" points="9,-829.8015 9,-912.2015 757,-912.2015 757,-829.8015 9,-829.8015"/>
<text text-anchor="middle" x="383" y="-895.6015" font-family="Times,serif" font-size="14.00" fill="#000000">Use cases</text>
</g>
<g id="clust2" class="cluster">
<title>cluster_Web</title>
<polygon fill="none" stroke="#ffffff" points="8,-660.8114 8,-759.4015 700,-759.4015 700,-660.8114 8,-660.8114"/>
</g>
<!-- admin\nuser&#45;interface -->
<g id="node1" class="node">
<title>admin\nuser-interface</title>
<polygon fill="none" stroke="#000000" points="109.4412,-879.2034 16.5588,-879.2034 16.5588,-837.9996 109.4412,-837.9996 109.4412,-879.2034"/>
<text text-anchor="middle" x="63" y="-862.8015" font-family="Times,serif" font-size="14.00" fill="#000000">admin</text>
<text text-anchor="middle" x="63" y="-846.0015" font-family="Times,serif" font-size="14.00" fill="#000000">user-interface</text>
</g>
<!-- rule&#45;\naction&#45;\nmanagement -->
<g id="node9" class="node">
<title>rule-\naction-\nmanagement</title>
<ellipse fill="none" stroke="#000000" cx="78" cy="-710.1065" rx="61.7866" ry="41.0911"/>
<text text-anchor="middle" x="78" y="-722.7065" font-family="Times,serif" font-size="14.00" fill="#000000">rule-</text>
<text text-anchor="middle" x="78" y="-705.9065" font-family="Times,serif" font-size="14.00" fill="#000000">action-</text>
<text text-anchor="middle" x="78" y="-689.1065" font-family="Times,serif" font-size="14.00" fill="#000000">management</text>
</g>
<!-- admin\nuser&#45;interface&#45;&gt;rule&#45;\naction&#45;\nmanagement -->
<g id="edge1" class="edge">
<title>admin\nuser-interface-&gt;rule-\naction-\nmanagement</title>
<path fill="none" stroke="#000000" d="M65.0857,-837.9539C67.0755,-818.255 70.1542,-787.7777 72.8065,-761.5208"/>
<polygon fill="#000000" stroke="#000000" points="76.3138,-761.6238 73.8366,-751.3227 69.3492,-760.9203 76.3138,-761.6238"/>
<text text-anchor="middle" x="109.9071" y="-807.2015" font-family="Times,serif" font-size="14.00" fill="#000000">create</text>
<text text-anchor="middle" x="109.9071" y="-790.4015" font-family="Times,serif" font-size="14.00" fill="#000000">segments and</text>
<text text-anchor="middle" x="109.9071" y="-773.6015" font-family="Times,serif" font-size="14.00" fill="#000000">rules</text>
</g>
<!-- segment&#45;\nmanagement -->
<g id="node11" class="node">
<title>segment-\nmanagement</title>
<ellipse fill="none" stroke="#000000" cx="220" cy="-710.1065" rx="61.7866" ry="29.3315"/>
<text text-anchor="middle" x="220" y="-714.3065" font-family="Times,serif" font-size="14.00" fill="#000000">segment-</text>
<text text-anchor="middle" x="220" y="-697.5065" font-family="Times,serif" font-size="14.00" fill="#000000">management</text>
</g>
<!-- admin\nuser&#45;interface&#45;&gt;segment&#45;\nmanagement -->
<g id="edge2" class="edge">
<title>admin\nuser-interface-&gt;segment-\nmanagement</title>
<path fill="none" stroke="#000000" d="M100.8257,-837.9851C106.8235,-835.0561 113.021,-832.2217 119,-829.8015 133.2056,-824.0513 139.9314,-829.2468 152,-819.8015 172.5284,-803.7353 168.2987,-791.5784 182,-769.4015 186.5266,-762.0748 191.4391,-754.2909 196.1823,-746.8562"/>
<polygon fill="#000000" stroke="#000000" points="199.1926,-748.6455 201.6396,-738.3371 193.2983,-744.8696 199.1926,-748.6455"/>
</g>
<!-- automatic group&#45;assigmnent\non profile&#45;change -->
<g id="node2" class="node">
<title>automatic group-assigmnent\non profile-change</title>
<polygon fill="none" stroke="#000000" points="459.5176,-879.2034 284.4824,-879.2034 284.4824,-837.9996 459.5176,-837.9996 459.5176,-879.2034"/>
<text text-anchor="middle" x="372" y="-862.8015" font-family="Times,serif" font-size="14.00" fill="#000000">automatic group-assigmnent</text>
<text text-anchor="middle" x="372" y="-846.0015" font-family="Times,serif" font-size="14.00" fill="#000000">on profile-change</text>
</g>
<!-- user&#45;\nmanagement -->
<g id="node10" class="node">
<title>user-\nmanagement</title>
<ellipse fill="none" stroke="#000000" cx="362" cy="-710.1065" rx="61.7866" ry="29.3315"/>
<text text-anchor="middle" x="362" y="-714.3065" font-family="Times,serif" font-size="14.00" fill="#000000">user-</text>
<text text-anchor="middle" x="362" y="-697.5065" font-family="Times,serif" font-size="14.00" fill="#000000">management</text>
</g>
<!-- automatic group&#45;assigmnent\non profile&#45;change&#45;&gt;user&#45;\nmanagement -->
<g id="edge3" class="edge">
<title>automatic group-assigmnent\non profile-change-&gt;user-\nmanagement</title>
<path fill="none" stroke="#000000" d="M370.6095,-837.9539C369.0753,-815.1707 366.5701,-777.9695 364.6566,-749.5553"/>
<polygon fill="#000000" stroke="#000000" points="368.1454,-749.2697 363.9813,-739.5275 361.1612,-749.7401 368.1454,-749.2697"/>
</g>
<!-- welcome&#45;mail\non group membership -->
<g id="node3" class="node">
<title>welcome-mail\non group membership</title>
<polygon fill="none" stroke="#000000" points="266.3669,-879.2034 127.6331,-879.2034 127.6331,-837.9996 266.3669,-837.9996 266.3669,-879.2034"/>
<text text-anchor="middle" x="197" y="-862.8015" font-family="Times,serif" font-size="14.00" fill="#000000">welcome-mail</text>
<text text-anchor="middle" x="197" y="-846.0015" font-family="Times,serif" font-size="14.00" fill="#000000">on group membership</text>
</g>
<!-- welcome&#45;mail\non group membership&#45;&gt;user&#45;\nmanagement -->
<g id="edge4" class="edge">
<title>welcome-mail\non group membership-&gt;user-\nmanagement</title>
<path fill="none" stroke="#000000" d="M216.919,-837.7799C234.8928,-819.2877 262.3129,-791.801 287.5834,-769.4015 298.2273,-759.9669 310.1294,-750.1711 321.2394,-741.3244"/>
<polygon fill="#000000" stroke="#000000" points="323.4814,-744.0137 329.1598,-735.0691 319.1428,-738.5203 323.4814,-744.0137"/>
<text text-anchor="middle" x="325.7083" y="-798.8015" font-family="Times,serif" font-size="14.00" fill="#000000">userattributes</text>
<text text-anchor="middle" x="325.7083" y="-782.0015" font-family="Times,serif" font-size="14.00" fill="#000000">adjusted</text>
</g>
<!-- notify\ntopic&#45;created -->
<g id="node4" class="node">
<title>notify\ntopic-created</title>
<polygon fill="none" stroke="#000000" points="645.566,-879.2034 556.434,-879.2034 556.434,-837.9996 645.566,-837.9996 645.566,-879.2034"/>
<text text-anchor="middle" x="601" y="-862.8015" font-family="Times,serif" font-size="14.00" fill="#000000">notify</text>
<text text-anchor="middle" x="601" y="-846.0015" font-family="Times,serif" font-size="14.00" fill="#000000">topic-created</text>
</g>
<!-- segment&#45;rule&#45;\ntrigger&#45;\nservice -->
<g id="node7" class="node">
<title>segment-rule-\ntrigger-\nservice</title>
<ellipse fill="none" stroke="#000000" cx="508" cy="-710.1065" rx="66.0719" ry="41.0911"/>
<text text-anchor="middle" x="508" y="-722.7065" font-family="Times,serif" font-size="14.00" fill="#000000">segment-rule-</text>
<text text-anchor="middle" x="508" y="-705.9065" font-family="Times,serif" font-size="14.00" fill="#000000">trigger-</text>
<text text-anchor="middle" x="508" y="-689.1065" font-family="Times,serif" font-size="14.00" fill="#000000">service</text>
</g>
<!-- notify\ntopic&#45;created&#45;&gt;segment&#45;rule&#45;\ntrigger&#45;\nservice -->
<g id="edge6" class="edge">
<title>notify\ntopic-created-&gt;segment-rule-\ntrigger-\nservice</title>
<path fill="none" stroke="#000000" d="M597.681,-837.8091C593.9388,-818.839 586.5277,-790.6133 573,-769.4015 568.5135,-762.3666 562.9821,-755.6341 557.0561,-749.3953"/>
<polygon fill="#000000" stroke="#000000" points="559.5075,-746.897 549.9572,-742.3098 554.5624,-751.8514 559.5075,-746.897"/>
</g>
<!-- weekly&#45;\ndigest -->
<g id="node5" class="node">
<title>weekly-\ndigest</title>
<polygon fill="none" stroke="#000000" points="538.5871,-879.2034 477.4129,-879.2034 477.4129,-837.9996 538.5871,-837.9996 538.5871,-879.2034"/>
<text text-anchor="middle" x="508" y="-862.8015" font-family="Times,serif" font-size="14.00" fill="#000000">weekly-</text>
<text text-anchor="middle" x="508" y="-846.0015" font-family="Times,serif" font-size="14.00" fill="#000000">digest</text>
</g>
<!-- weekly&#45;\ndigest&#45;&gt;segment&#45;rule&#45;\ntrigger&#45;\nservice -->
<g id="edge5" class="edge">
<title>weekly-\ndigest-&gt;segment-rule-\ntrigger-\nservice</title>
<path fill="none" stroke="#000000" d="M508,-837.9539C508,-818.3254 508,-787.9952 508,-761.8023"/>
<polygon fill="#000000" stroke="#000000" points="511.5001,-761.6248 508,-751.6249 504.5001,-761.6249 511.5001,-761.6248"/>
<text text-anchor="middle" x="538.3198" y="-798.8015" font-family="Times,serif" font-size="14.00" fill="#000000">trigger</text>
<text text-anchor="middle" x="538.3198" y="-782.0015" font-family="Times,serif" font-size="14.00" fill="#000000">eexecution</text>
</g>
<!-- trasactional&#45;\nemail -->
<g id="node6" class="node">
<title>trasactional-\nemail</title>
<polygon fill="none" stroke="#000000" points="748.6868,-879.2034 663.3132,-879.2034 663.3132,-837.9996 748.6868,-837.9996 748.6868,-879.2034"/>
<text text-anchor="middle" x="706" y="-862.8015" font-family="Times,serif" font-size="14.00" fill="#000000">trasactional-</text>
<text text-anchor="middle" x="706" y="-846.0015" font-family="Times,serif" font-size="14.00" fill="#000000">email</text>
</g>
<!-- user&#45;rule&#45;\ntrigger&#45;\nservice -->
<g id="node8" class="node">
<title>user-rule-\ntrigger-\nservice</title>
<ellipse fill="none" stroke="#000000" cx="642" cy="-710.1065" rx="49.5712" ry="41.0911"/>
<text text-anchor="middle" x="642" y="-722.7065" font-family="Times,serif" font-size="14.00" fill="#000000">user-rule-</text>
<text text-anchor="middle" x="642" y="-705.9065" font-family="Times,serif" font-size="14.00" fill="#000000">trigger-</text>
<text text-anchor="middle" x="642" y="-689.1065" font-family="Times,serif" font-size="14.00" fill="#000000">service</text>
</g>
<!-- trasactional&#45;\nemail&#45;&gt;user&#45;rule&#45;\ntrigger&#45;\nservice -->
<g id="edge7" class="edge">
<title>trasactional-\nemail-&gt;user-rule-\ntrigger-\nservice</title>
<path fill="none" stroke="#000000" d="M697.1011,-837.9539C688.2833,-817.4945 674.4544,-785.4084 662.8569,-758.4995"/>
<polygon fill="#000000" stroke="#000000" points="666.0319,-757.023 658.8597,-749.2249 659.6035,-759.7936 666.0319,-757.023"/>
<text text-anchor="middle" x="718.3198" y="-798.8015" font-family="Times,serif" font-size="14.00" fill="#000000">trigger</text>
<text text-anchor="middle" x="718.3198" y="-782.0015" font-family="Times,serif" font-size="14.00" fill="#000000">eexecution</text>
</g>
<!-- segment&#45;\nrule&#45;\nevaluator -->
<g id="node12" class="node">
<title>segment-\nrule-\nevaluator</title>
<ellipse fill="none" stroke="#000000" cx="451" cy="-372.1263" rx="48.288" ry="41.0911"/>
<text text-anchor="middle" x="451" y="-384.7263" font-family="Times,serif" font-size="14.00" fill="#000000">segment-</text>
<text text-anchor="middle" x="451" y="-367.9263" font-family="Times,serif" font-size="14.00" fill="#000000">rule-</text>
<text text-anchor="middle" x="451" y="-351.1263" font-family="Times,serif" font-size="14.00" fill="#000000">evaluator</text>
</g>
<!-- segment&#45;rule&#45;\ntrigger&#45;\nservice&#45;&gt;segment&#45;\nrule&#45;\nevaluator -->
<g id="edge8" class="edge">
<title>segment-rule-\ntrigger-\nservice-&gt;segment-\nrule-\nevaluator</title>
<path fill="none" stroke="#000000" stroke-dasharray="1,5" d="M505.0074,-668.5767C500.4833,-613.7251 490.3049,-514.3735 471,-431.4214 470.2255,-428.0932 469.3393,-424.6878 468.3807,-421.2743"/>
<polygon fill="#000000" stroke="#000000" points="471.7341,-420.2716 465.5198,-411.6906 465.0266,-422.274 471.7341,-420.2716"/>
<text text-anchor="middle" x="523.2125" y="-553.7164" font-family="Times,serif" font-size="14.00" fill="#000000">rule</text>
<text text-anchor="middle" x="523.2125" y="-536.9164" font-family="Times,serif" font-size="14.00" fill="#000000">execution</text>
<text text-anchor="middle" x="523.2125" y="-520.1164" font-family="Times,serif" font-size="14.00" fill="#000000">requested</text>
</g>
<!-- user&#45;\nrule&#45;\nevaluator -->
<g id="node13" class="node">
<title>user-\nrule-\nevaluator</title>
<ellipse fill="none" stroke="#000000" cx="634" cy="-541.1164" rx="48.288" ry="41.0911"/>
<text text-anchor="middle" x="634" y="-553.7164" font-family="Times,serif" font-size="14.00" fill="#000000">user-</text>
<text text-anchor="middle" x="634" y="-536.9164" font-family="Times,serif" font-size="14.00" fill="#000000">rule-</text>
<text text-anchor="middle" x="634" y="-520.1164" font-family="Times,serif" font-size="14.00" fill="#000000">evaluator</text>
</g>
<!-- user&#45;rule&#45;\ntrigger&#45;\nservice&#45;&gt;user&#45;\nrule&#45;\nevaluator -->
<g id="edge9" class="edge">
<title>user-rule-\ntrigger-\nservice-&gt;user-\nrule-\nevaluator</title>
<path fill="none" stroke="#000000" stroke-dasharray="1,5" d="M640.043,-668.7668C638.9582,-645.853 637.5995,-617.1513 636.4453,-592.77"/>
<polygon fill="#000000" stroke="#000000" points="639.9336,-592.4382 635.9645,-582.6149 632.9414,-592.7693 639.9336,-592.4382"/>
<text text-anchor="middle" x="666.2125" y="-638.2114" font-family="Times,serif" font-size="14.00" fill="#000000">rule</text>
<text text-anchor="middle" x="666.2125" y="-621.4114" font-family="Times,serif" font-size="14.00" fill="#000000">execution</text>
<text text-anchor="middle" x="666.2125" y="-604.6114" font-family="Times,serif" font-size="14.00" fill="#000000">requested</text>
</g>
<!-- segment&#45;change&#45;\nrule&#45;\nevaluator -->
<g id="node15" class="node">
<title>segment-change-\nrule-\nevaluator</title>
<ellipse fill="none" stroke="#000000" cx="297" cy="-372.1263" rx="78.8546" ry="41.0911"/>
<text text-anchor="middle" x="297" y="-384.7263" font-family="Times,serif" font-size="14.00" fill="#000000">segment-change-</text>
<text text-anchor="middle" x="297" y="-367.9263" font-family="Times,serif" font-size="14.00" fill="#000000">rule-</text>
<text text-anchor="middle" x="297" y="-351.1263" font-family="Times,serif" font-size="14.00" fill="#000000">evaluator</text>
</g>
<!-- rule&#45;\naction&#45;\nmanagement&#45;&gt;segment&#45;change&#45;\nrule&#45;\nevaluator -->
<g id="edge15" class="edge">
<title>rule-\naction-\nmanagement-&gt;segment-change-\nrule-\nevaluator</title>
<path fill="none" stroke="#000000" stroke-dasharray="1,5" d="M91.8873,-669.6499C108.0059,-625.6919 137.1954,-554.4381 174.3562,-499.8214 195.5109,-468.7294 224.4568,-438.1907 248.9153,-414.7777"/>
<polygon fill="#000000" stroke="#000000" points="251.488,-417.162 256.3483,-407.7477 246.678,-412.0763 251.488,-417.162"/>
<text text-anchor="middle" x="198.3219" y="-545.3164" font-family="Times,serif" font-size="14.00" fill="#000000">rule</text>
<text text-anchor="middle" x="198.3219" y="-528.5164" font-family="Times,serif" font-size="14.00" fill="#000000">changed</text>
</g>
<!-- segment&#45;user&#45;\nmanagement -->
<g id="node14" class="node">
<title>segment-user-\nmanagement</title>
<ellipse fill="none" stroke="#000000" cx="297" cy="-541.1164" rx="67.2691" ry="29.3315"/>
<text text-anchor="middle" x="297" y="-545.3164" font-family="Times,serif" font-size="14.00" fill="#000000">segment-user-</text>
<text text-anchor="middle" x="297" y="-528.5164" font-family="Times,serif" font-size="14.00" fill="#000000">management</text>
</g>
<!-- user&#45;\nmanagement&#45;&gt;segment&#45;user&#45;\nmanagement -->
<g id="edge12" class="edge">
<title>user-\nmanagement-&gt;segment-user-\nmanagement</title>
<path fill="none" stroke="#000000" stroke-dasharray="1,5" d="M359.5494,-680.6727C356.8534,-657.9765 351.2957,-626.2111 340,-600.4114 336.5176,-592.4576 331.8338,-584.5283 326.8372,-577.1764"/>
<polygon fill="#000000" stroke="#000000" points="329.5439,-574.9442 320.8813,-568.8443 323.8492,-579.0149 329.5439,-574.9442"/>
<text text-anchor="middle" x="378.3219" y="-638.2114" font-family="Times,serif" font-size="14.00" fill="#000000">user</text>
<text text-anchor="middle" x="378.3219" y="-621.4114" font-family="Times,serif" font-size="14.00" fill="#000000">changed</text>
<text text-anchor="middle" x="378.3219" y="-604.6114" font-family="Times,serif" font-size="14.00" fill="#000000">event</text>
</g>
<!-- segment&#45;\nmanagement&#45;&gt;segment&#45;user&#45;\nmanagement -->
<g id="edge10" class="edge">
<title>segment-\nmanagement-&gt;segment-user-\nmanagement</title>
<path fill="none" stroke="#000000" stroke-dasharray="1,5" d="M214.0816,-680.552C210.9618,-657.5012 209.9866,-625.3257 222.345,-600.4114 228.0325,-588.9454 237.0958,-578.9962 246.9764,-570.6935"/>
<polygon fill="#000000" stroke="#000000" points="249.3107,-573.311 255.0268,-564.3904 244.9954,-567.7993 249.3107,-573.311"/>
<text text-anchor="middle" x="246.3275" y="-629.8114" font-family="Times,serif" font-size="14.00" fill="#000000">segment</text>
<text text-anchor="middle" x="246.3275" y="-613.0114" font-family="Times,serif" font-size="14.00" fill="#000000">changed</text>
</g>
<!-- segment&#45;\nmanagement&#45;&gt;segment&#45;user&#45;\nmanagement -->
<g id="edge11" class="edge">
<title>segment-\nmanagement-&gt;segment-user-\nmanagement</title>
<path fill="none" stroke="#000000" stroke-dasharray="5,2" d="M246.4336,-683.2629C254.6738,-673.6687 263.1303,-662.359 269,-650.8114 280.0979,-628.9782 287.0259,-602.4098 291.2141,-580.8888"/>
<polygon fill="#000000" stroke="#000000" points="294.708,-581.2376 293.0562,-570.7723 287.8213,-579.9835 294.708,-581.2376"/>
<text text-anchor="middle" x="310.3275" y="-638.2114" font-family="Times,serif" font-size="14.00" fill="#000000">users in</text>
<text text-anchor="middle" x="310.3275" y="-621.4114" font-family="Times,serif" font-size="14.00" fill="#000000">segment</text>
<text text-anchor="middle" x="310.3275" y="-604.6114" font-family="Times,serif" font-size="14.00" fill="#000000">query</text>
</g>
<!-- action&#45;\nexecutor -->
<g id="node16" class="node">
<title>action-\nexecutor</title>
<ellipse fill="none" stroke="#000000" cx="451" cy="-231.8156" rx="45.2857" ry="29.3315"/>
<text text-anchor="middle" x="451" y="-236.0156" font-family="Times,serif" font-size="14.00" fill="#000000">action-</text>
<text text-anchor="middle" x="451" y="-219.2156" font-family="Times,serif" font-size="14.00" fill="#000000">executor</text>
</g>
<!-- segment&#45;\nrule&#45;\nevaluator&#45;&gt;action&#45;\nexecutor -->
<g id="edge18" class="edge">
<title>segment-\nrule-\nevaluator-&gt;action-\nexecutor</title>
<path fill="none" stroke="#000000" stroke-dasharray="1,5" d="M451,-330.7874C451,-312.0498 451,-289.9927 451,-271.4624"/>
<polygon fill="#000000" stroke="#000000" points="454.5001,-271.2935 451,-261.2935 447.5001,-271.2935 454.5001,-271.2935"/>
<text text-anchor="middle" x="462.6599" y="-300.2313" font-family="Times,serif" font-size="14.00" fill="#000000">user</text>
<text text-anchor="middle" x="462.6599" y="-283.4313" font-family="Times,serif" font-size="14.00" fill="#000000">task</text>
</g>
<!-- user&#45;\nrule&#45;\nevaluator&#45;&gt;action&#45;\nexecutor -->
<g id="edge17" class="edge">
<title>user-\nrule-\nevaluator-&gt;action-\nexecutor</title>
<path fill="none" stroke="#000000" stroke-dasharray="1,5" d="M612.1077,-504.1147C576.7341,-444.3273 507.4405,-327.2095 472.3906,-267.9693"/>
<polygon fill="#000000" stroke="#000000" points="475.3771,-266.1434 467.2727,-259.3192 469.3525,-269.7079 475.3771,-266.1434"/>
<text text-anchor="middle" x="568.6599" y="-376.3263" font-family="Times,serif" font-size="14.00" fill="#000000">user</text>
<text text-anchor="middle" x="568.6599" y="-359.5263" font-family="Times,serif" font-size="14.00" fill="#000000">task</text>
</g>
<!-- segment&#45;user&#45;\nmanagement&#45;&gt;segment&#45;\nrule&#45;\nevaluator -->
<g id="edge13" class="edge">
<title>segment-user-\nmanagement-&gt;segment-\nrule-\nevaluator</title>
<path fill="none" stroke="#000000" stroke-dasharray="1,5" d="M327.6572,-514.8614C338.8157,-504.8675 351.3067,-493.1526 362,-481.8214 381.7629,-460.8795 402.1192,-436.0722 418.3674,-415.3506"/>
<polygon fill="#000000" stroke="#000000" points="421.2279,-417.3738 424.6097,-407.3332 415.7046,-413.0734 421.2279,-417.3738"/>
<text text-anchor="middle" x="436.5228" y="-469.2214" font-family="Times,serif" font-size="14.00" fill="#000000">user added</text>
<text text-anchor="middle" x="436.5228" y="-452.4214" font-family="Times,serif" font-size="14.00" fill="#000000">to segment</text>
<text text-anchor="middle" x="436.5228" y="-435.6214" font-family="Times,serif" font-size="14.00" fill="#000000">event</text>
</g>
<!-- segment&#45;user&#45;\nmanagement&#45;&gt;segment&#45;change&#45;\nrule&#45;\nevaluator -->
<g id="edge14" class="edge">
<title>segment-user-\nmanagement-&gt;segment-change-\nrule-\nevaluator</title>
<path fill="none" stroke="#000000" stroke-dasharray="1,5" d="M297,-511.6806C297,-487.5091 297,-452.6901 297,-423.8792"/>
<polygon fill="#000000" stroke="#000000" points="300.5001,-423.5673 297,-413.5674 293.5001,-423.5674 300.5001,-423.5673"/>
<text text-anchor="middle" x="327.5228" y="-460.8214" font-family="Times,serif" font-size="14.00" fill="#000000">user added</text>
<text text-anchor="middle" x="327.5228" y="-444.0214" font-family="Times,serif" font-size="14.00" fill="#000000">to segment</text>
</g>
<!-- segment&#45;change&#45;\nrule&#45;\nevaluator&#45;&gt;action&#45;\nexecutor -->
<g id="edge16" class="edge">
<title>segment-change-\nrule-\nevaluator-&gt;action-\nexecutor</title>
<path fill="none" stroke="#000000" stroke-dasharray="1,5" d="M336.6588,-335.9928C361.5879,-313.2798 393.4069,-284.2892 417.1464,-262.66"/>
<polygon fill="#000000" stroke="#000000" points="419.5163,-265.2356 424.5511,-255.9135 414.8019,-260.0612 419.5163,-265.2356"/>
<text text-anchor="middle" x="408.6599" y="-300.2313" font-family="Times,serif" font-size="14.00" fill="#000000">user</text>
<text text-anchor="middle" x="408.6599" y="-283.4313" font-family="Times,serif" font-size="14.00" fill="#000000">task</text>
</g>
<!-- sms&#45;sender -->
<g id="node17" class="node">
<title>sms-sender</title>
<ellipse fill="none" stroke="#000000" cx="246" cy="-131.6" rx="54.4508" ry="18"/>
<text text-anchor="middle" x="246" y="-127.4" font-family="Times,serif" font-size="14.00" fill="#000000">sms-sender</text>
</g>
<!-- action&#45;\nexecutor&#45;&gt;sms&#45;sender -->
<g id="edge19" class="edge">
<title>action-\nexecutor-&gt;sms-sender</title>
<path fill="none" stroke="#000000" stroke-dasharray="5,2" d="M414.3501,-213.8991C378.1464,-196.2007 322.9358,-169.2106 285.706,-151.0106"/>
<polygon fill="#000000" stroke="#000000" points="287.1719,-147.8314 276.6508,-146.5838 284.0975,-154.1201 287.1719,-147.8314"/>
<text text-anchor="middle" x="359.1052" y="-171.8" font-family="Times,serif" font-size="14.00" fill="#000000">call</text>
</g>
<!-- email&#45;sender -->
<g id="node18" class="node">
<title>email-sender</title>
<ellipse fill="none" stroke="#000000" cx="379" cy="-131.6" rx="60.8101" ry="18"/>
<text text-anchor="middle" x="379" y="-127.4" font-family="Times,serif" font-size="14.00" fill="#000000">email-sender</text>
</g>
<!-- action&#45;\nexecutor&#45;&gt;email&#45;sender -->
<g id="edge20" class="edge">
<title>action-\nexecutor-&gt;email-sender</title>
<path fill="none" stroke="#000000" stroke-dasharray="5,2" d="M431.7053,-204.9597C421.2187,-190.3636 408.3022,-172.3852 397.8806,-157.8796"/>
<polygon fill="#000000" stroke="#000000" points="400.4354,-155.437 391.7581,-149.3578 394.7505,-159.5213 400.4354,-155.437"/>
<text text-anchor="middle" x="425.1052" y="-171.8" font-family="Times,serif" font-size="14.00" fill="#000000">call</text>
</g>
<!-- group&#45;updater -->
<g id="node19" class="node">
<title>group-updater</title>
<ellipse fill="none" stroke="#000000" cx="524" cy="-131.6" rx="65.9755" ry="18"/>
<text text-anchor="middle" x="524" y="-127.4" font-family="Times,serif" font-size="14.00" fill="#000000">group-updater</text>
</g>
<!-- action&#45;\nexecutor&#45;&gt;group&#45;updater -->
<g id="edge21" class="edge">
<title>action-\nexecutor-&gt;group-updater</title>
<path fill="none" stroke="#000000" stroke-dasharray="5,2" d="M470.5627,-204.9597C481.2952,-190.2259 494.5382,-172.0457 505.1556,-157.47"/>
<polygon fill="#000000" stroke="#000000" points="508.0058,-159.5015 511.0647,-149.3578 502.3478,-155.38 508.0058,-159.5015"/>
<text text-anchor="middle" x="506.1052" y="-171.8" font-family="Times,serif" font-size="14.00" fill="#000000">call</text>
</g>
<!-- crm&#45;updater -->
<g id="node20" class="node">
<title>crm-updater</title>
<ellipse fill="none" stroke="#000000" cx="666" cy="-131.6" rx="58.4454" ry="18"/>
<text text-anchor="middle" x="666" y="-127.4" font-family="Times,serif" font-size="14.00" fill="#000000">crm-updater</text>
</g>
<!-- action&#45;\nexecutor&#45;&gt;crm&#45;updater -->
<g id="edge22" class="edge">
<title>action-\nexecutor-&gt;crm-updater</title>
<path fill="none" stroke="#000000" stroke-dasharray="5,2" d="M487.9598,-214.588C525.9735,-196.8691 585.0567,-169.3292 624.6141,-150.8907"/>
<polygon fill="#000000" stroke="#000000" points="626.1455,-154.0386 633.7306,-146.6414 623.1881,-147.6939 626.1455,-154.0386"/>
<text text-anchor="middle" x="594.1052" y="-171.8" font-family="Times,serif" font-size="14.00" fill="#000000">call</text>
</g>
<!-- aws/twilio -->
<g id="node22" class="node">
<title>aws/twilio</title>
<ellipse fill="none" stroke="#000000" cx="246" cy="-42.8" rx="51.0377" ry="18"/>
<text text-anchor="middle" x="246" y="-38.6" font-family="Times,serif" font-size="14.00" fill="#000000">aws/twilio</text>
</g>
<!-- sms&#45;sender&#45;&gt;aws/twilio -->
<g id="edge24" class="edge">
<title>sms-sender-&gt;aws/twilio</title>
<path fill="none" stroke="#000000" d="M246,-113.2006C246,-101.0949 246,-85.0076 246,-71.2674"/>
<polygon fill="#000000" stroke="#000000" points="249.5001,-70.872 246,-60.872 242.5001,-70.8721 249.5001,-70.872"/>
<text text-anchor="middle" x="266.9881" y="-83" font-family="Times,serif" font-size="14.00" fill="#000000">rest-api</text>
</g>
<!-- aws/sendgrid -->
<g id="node21" class="node">
<title>aws/sendgrid</title>
<ellipse fill="none" stroke="#000000" cx="378" cy="-42.8" rx="61.977" ry="18"/>
<text text-anchor="middle" x="378" y="-38.6" font-family="Times,serif" font-size="14.00" fill="#000000">aws/sendgrid</text>
</g>
<!-- email&#45;sender&#45;&gt;aws/sendgrid -->
<g id="edge23" class="edge">
<title>email-sender-&gt;aws/sendgrid</title>
<path fill="none" stroke="#000000" d="M378.7928,-113.2006C378.6565,-101.0949 378.4753,-85.0076 378.3206,-71.2674"/>
<polygon fill="#000000" stroke="#000000" points="381.816,-70.8319 378.2035,-60.872 374.8164,-70.9108 381.816,-70.8319"/>
<text text-anchor="middle" x="399.9881" y="-83" font-family="Times,serif" font-size="14.00" fill="#000000">rest-api</text>
</g>
<!-- insided&#45;system -->
<g id="node23" class="node">
<title>insided-system</title>
<ellipse fill="none" stroke="#000000" cx="527" cy="-42.8" rx="68.9371" ry="18"/>
<text text-anchor="middle" x="527" y="-38.6" font-family="Times,serif" font-size="14.00" fill="#000000">insided-system</text>
</g>
<!-- group&#45;updater&#45;&gt;insided&#45;system -->
<g id="edge25" class="edge">
<title>group-updater-&gt;insided-system</title>
<path fill="none" stroke="#000000" d="M524.6216,-113.2006C525.0306,-101.0949 525.5741,-85.0076 526.0383,-71.2674"/>
<polygon fill="#000000" stroke="#000000" points="529.5497,-70.9845 526.3895,-60.872 522.5537,-70.7481 529.5497,-70.9845"/>
<text text-anchor="middle" x="545.9881" y="-83" font-family="Times,serif" font-size="14.00" fill="#000000">rest-api</text>
</g>
<!-- salesforce -->
<g id="node24" class="node">
<title>salesforce</title>
<ellipse fill="none" stroke="#000000" cx="666" cy="-42.8" rx="49.7729" ry="18"/>
<text text-anchor="middle" x="666" y="-38.6" font-family="Times,serif" font-size="14.00" fill="#000000">salesforce</text>
</g>
<!-- crm&#45;updater&#45;&gt;salesforce -->
<g id="edge26" class="edge">
<title>crm-updater-&gt;salesforce</title>
<path fill="none" stroke="#000000" d="M666,-113.2006C666,-101.0949 666,-85.0076 666,-71.2674"/>
<polygon fill="#000000" stroke="#000000" points="669.5001,-70.872 666,-60.872 662.5001,-70.8721 669.5001,-70.872"/>
<text text-anchor="middle" x="686.9881" y="-83" font-family="Times,serif" font-size="14.00" fill="#000000">rest-api</text>
</g>
</g>
</svg>