<?xml version="1.0" encoding="UTF-8" standalone="no"?><!DOCTYPE svg PUBLIC "-//W3C//DTD SVG 1.1//EN" "http://www.w3.org/Graphics/SVG/1.1/DTD/svg11.dtd"><!-- Generated by graphviz version 2.40.1 (20161225.0304)
 --><!-- Title: G Pages: 1 --><svg xmlns="http://www.w3.org/2000/svg" xmlns:xlink="http://www.w3.org/1999/xlink" width="702pt" height="633pt" viewBox="0.00 0.00 701.78 632.95">
<g id="graph0" class="graph" transform="scale(1 1) rotate(0) translate(4 628.9465)">
<title>G</title>
<polygon fill="#ffffff" stroke="transparent" points="-4,4 -4,-628.9465 697.7835,-628.9465 697.7835,4 -4,4"/>
<g id="clust1" class="cluster">
<title>cluster_Web</title>
<polygon fill="none" stroke="#000000" points="8,-438.5251 8,-537.1152 664,-537.1152 664,-438.5251 8,-438.5251"/>
</g>
<!-- existing\nlandscape -->
<g id="node1" class="node">
<title>existing\nlandscape</title>
<ellipse fill="none" stroke="#000000" cx="343" cy="-595.5309" rx="50.1835" ry="29.3315"/>
<text text-anchor="middle" x="343" y="-599.7309" font-family="Times,serif" font-size="14.00" fill="#000000">existing</text>
<text text-anchor="middle" x="343" y="-582.9309" font-family="Times,serif" font-size="14.00" fill="#000000">landscape</text>
</g>
<!-- rule&#45;\ntrigger&#45;\nservice -->
<g id="node2" class="node">
<title>rule-\ntrigger-\nservice</title>
<ellipse fill="none" stroke="#000000" cx="615" cy="-487.8202" rx="40.9927" ry="41.0911"/>
<text text-anchor="middle" x="615" y="-500.4202" font-family="Times,serif" font-size="14.00" fill="#000000">rule-</text>
<text text-anchor="middle" x="615" y="-483.6202" font-family="Times,serif" font-size="14.00" fill="#000000">trigger-</text>
<text text-anchor="middle" x="615" y="-466.8202" font-family="Times,serif" font-size="14.00" fill="#000000">service</text>
</g>
<!-- existing\nlandscape&#45;&gt;rule&#45;\ntrigger&#45;\nservice -->
<g id="edge1" class="edge">
<title>existing\nlandscape-&gt;rule-\ntrigger-\nservice</title>
<path fill="none" stroke="#000000" d="M392.5304,-589.9743C439.4525,-583.0398 510.6321,-568.0856 565,-537.1152 570.4218,-534.0267 575.6744,-530.2025 580.6087,-526.0602"/>
<polygon fill="#000000" stroke="#000000" points="582.9791,-528.6357 588.0792,-519.3492 578.3011,-523.4283 582.9791,-528.6357"/>
</g>
<!-- rule&#45;\nmanagement&#45;\nservice -->
<g id="node3" class="node">
<title>rule-\nmanagement-\nservice</title>
<ellipse fill="none" stroke="#000000" cx="491" cy="-487.8202" rx="65.378" ry="41.0911"/>
<text text-anchor="middle" x="491" y="-500.4202" font-family="Times,serif" font-size="14.00" fill="#000000">rule-</text>
<text text-anchor="middle" x="491" y="-483.6202" font-family="Times,serif" font-size="14.00" fill="#000000">management-</text>
<text text-anchor="middle" x="491" y="-466.8202" font-family="Times,serif" font-size="14.00" fill="#000000">service</text>
</g>
<!-- existing\nlandscape&#45;&gt;rule&#45;\nmanagement&#45;\nservice -->
<g id="edge2" class="edge">
<title>existing\nlandscape-&gt;rule-\nmanagement-\nservice</title>
<path fill="none" stroke="#000000" d="M374.7497,-572.4242C393.7289,-558.6116 418.2844,-540.7408 439.9338,-524.9849"/>
<polygon fill="#000000" stroke="#000000" points="442.0452,-527.777 448.0712,-519.0627 437.9262,-522.1172 442.0452,-527.777"/>
</g>
<!-- user&#45;\nmanagement&#45;\nservice -->
<g id="node4" class="node">
<title>user-\nmanagement-\nservice</title>
<ellipse fill="none" stroke="#000000" cx="81" cy="-487.8202" rx="65.378" ry="41.0911"/>
<text text-anchor="middle" x="81" y="-500.4202" font-family="Times,serif" font-size="14.00" fill="#000000">user-</text>
<text text-anchor="middle" x="81" y="-483.6202" font-family="Times,serif" font-size="14.00" fill="#000000">management-</text>
<text text-anchor="middle" x="81" y="-466.8202" font-family="Times,serif" font-size="14.00" fill="#000000">service</text>
</g>
<!-- existing\nlandscape&#45;&gt;user&#45;\nmanagement&#45;\nservice -->
<g id="edge3" class="edge">
<title>existing\nlandscape-&gt;user-\nmanagement-\nservice</title>
<path fill="none" stroke="#000000" d="M296.022,-584.9221C257.1216,-575.208 200.9779,-559.0114 155,-537.1152 147.3869,-533.4896 139.6535,-529.1668 132.1978,-524.6095"/>
<polygon fill="#000000" stroke="#000000" points="133.9211,-521.5583 123.5968,-519.1795 130.1842,-527.4775 133.9211,-521.5583"/>
</g>
<!-- segment&#45;\nmanagement&#45;\nservice -->
<g id="node5" class="node">
<title>segment-\nmanagement-\nservice</title>
<ellipse fill="none" stroke="#000000" cx="343" cy="-487.8202" rx="65.378" ry="41.0911"/>
<text text-anchor="middle" x="343" y="-500.4202" font-family="Times,serif" font-size="14.00" fill="#000000">segment-</text>
<text text-anchor="middle" x="343" y="-483.6202" font-family="Times,serif" font-size="14.00" fill="#000000">management-</text>
<text text-anchor="middle" x="343" y="-466.8202" font-family="Times,serif" font-size="14.00" fill="#000000">service</text>
</g>
<!-- existing\nlandscape&#45;&gt;segment&#45;\nmanagement&#45;\nservice -->
<g id="edge4" class="edge">
<title>existing\nlandscape-&gt;segment-\nmanagement-\nservice</title>
<path fill="none" stroke="#000000" d="M343,-566.0984C343,-557.8619 343,-548.6584 343,-539.5369"/>
<polygon fill="#000000" stroke="#000000" points="346.5001,-539.3291 343,-529.3291 339.5001,-539.3292 346.5001,-539.3291"/>
</g>
<!-- segment&#45;\nquery&#45;\nservice -->
<g id="node6" class="node">
<title>segment-\nquery-\nservice</title>
<ellipse fill="none" stroke="#000000" cx="212" cy="-487.8202" rx="47.6988" ry="41.0911"/>
<text text-anchor="middle" x="212" y="-500.4202" font-family="Times,serif" font-size="14.00" fill="#000000">segment-</text>
<text text-anchor="middle" x="212" y="-483.6202" font-family="Times,serif" font-size="14.00" fill="#000000">query-</text>
<text text-anchor="middle" x="212" y="-466.8202" font-family="Times,serif" font-size="14.00" fill="#000000">service</text>
</g>
<!-- existing\nlandscape&#45;&gt;segment&#45;\nquery&#45;\nservice -->
<g id="edge5" class="edge">
<title>existing\nlandscape-&gt;segment-\nquery-\nservice</title>
<path fill="none" stroke="#000000" d="M312.512,-571.9601C299.0613,-561.4341 283.1309,-548.7932 269,-537.1152 263.8503,-532.8595 258.4872,-528.3402 253.2007,-523.8319"/>
<polygon fill="#000000" stroke="#000000" points="255.4136,-521.1189 245.544,-517.2665 250.8571,-526.4328 255.4136,-521.1189"/>
</g>
<!-- ondemand&#45;\nrule&#45;executor -->
<g id="node7" class="node">
<title>ondemand-\nrule-executor</title>
<ellipse fill="none" stroke="#000000" cx="495" cy="-252.6782" rx="64.1581" ry="29.3315"/>
<text text-anchor="middle" x="495" y="-256.8782" font-family="Times,serif" font-size="14.00" fill="#000000">ondemand-</text>
<text text-anchor="middle" x="495" y="-240.0782" font-family="Times,serif" font-size="14.00" fill="#000000">rule-executor</text>
</g>
<!-- rule&#45;\ntrigger&#45;\nservice&#45;&gt;ondemand&#45;\nrule&#45;executor -->
<g id="edge6" class="edge">
<title>rule-\ntrigger-\nservice-&gt;ondemand-\nrule-executor</title>
<path fill="none" stroke="#000000" stroke-dasharray="5,2" d="M596.25,-451.0792C573.9108,-407.3051 536.7851,-334.5568 514.2346,-290.3687"/>
<polygon fill="#000000" stroke="#000000" points="517.3175,-288.7098 509.6543,-281.3936 511.0825,-291.8917 517.3175,-288.7098"/>
<text text-anchor="middle" x="582.7132" y="-360.1095" font-family="Times,serif" font-size="14.00" fill="#000000">driver</text>
</g>
<!-- rule&#45;\nmanagement&#45;\nservice&#45;&gt;ondemand&#45;\nrule&#45;executor -->
<g id="edge9" class="edge">
<title>rule-\nmanagement-\nservice-&gt;ondemand-\nrule-executor</title>
<path fill="none" stroke="#000000" stroke-dasharray="5,2" d="M491.7059,-446.3228C492.4456,-402.8395 493.5992,-335.0263 494.3265,-292.2704"/>
<polygon fill="#000000" stroke="#000000" points="497.8266,-292.2912 494.4972,-282.2331 490.8276,-292.1721 497.8266,-292.2912"/>
<text text-anchor="middle" x="505.0449" y="-360.1095" font-family="Times,serif" font-size="14.00" fill="#000000">feed</text>
</g>
<!-- segment&#45;change&#45;\nrule&#45;executor -->
<g id="node9" class="node">
<title>segment-change-\nrule-executor</title>
<ellipse fill="none" stroke="#000000" cx="334" cy="-252.6782" rx="78.8546" ry="29.3315"/>
<text text-anchor="middle" x="334" y="-256.8782" font-family="Times,serif" font-size="14.00" fill="#000000">segment-change-</text>
<text text-anchor="middle" x="334" y="-240.0782" font-family="Times,serif" font-size="14.00" fill="#000000">rule-executor</text>
</g>
<!-- rule&#45;\nmanagement&#45;\nservice&#45;&gt;segment&#45;change&#45;\nrule&#45;executor -->
<g id="edge13" class="edge">
<title>rule-\nmanagement-\nservice-&gt;segment-change-\nrule-executor</title>
<path fill="none" stroke="#000000" stroke-dasharray="5,2" d="M478.9229,-446.9351C464.1052,-398.8308 438.5465,-322.6472 419,-300.0939 412.3599,-292.4323 404.1631,-285.7574 395.5041,-280.0277"/>
<polygon fill="#000000" stroke="#000000" points="397.0793,-276.8868 386.7316,-274.6114 393.4018,-282.843 397.0793,-276.8868"/>
<text text-anchor="middle" x="473.0449" y="-360.1095" font-family="Times,serif" font-size="14.00" fill="#000000">feed</text>
</g>
<!-- segment&#45;\ncalculator -->
<g id="node8" class="node">
<title>segment-\ncalculator</title>
<ellipse fill="none" stroke="#000000" cx="334" cy="-364.3095" rx="50.1795" ry="29.3315"/>
<text text-anchor="middle" x="334" y="-368.5095" font-family="Times,serif" font-size="14.00" fill="#000000">segment-</text>
<text text-anchor="middle" x="334" y="-351.7095" font-family="Times,serif" font-size="14.00" fill="#000000">calculator</text>
</g>
<!-- user&#45;\nmanagement&#45;\nservice&#45;&gt;segment&#45;\ncalculator -->
<g id="edge10" class="edge">
<title>user-\nmanagement-\nservice-&gt;segment-\ncalculator</title>
<path fill="none" stroke="#000000" stroke-dasharray="5,2" d="M124.3503,-456.9156C134.2061,-450.4659 144.7866,-443.9773 155,-438.5251 196.001,-416.6377 244.88,-396.7596 281.1931,-383.0965"/>
<polygon fill="#000000" stroke="#000000" points="282.4647,-386.3579 290.6124,-379.5856 280.0197,-379.7987 282.4647,-386.3579"/>
<text text-anchor="middle" x="223.7132" y="-415.9251" font-family="Times,serif" font-size="14.00" fill="#000000">driver</text>
</g>
<!-- segment&#45;\nmanagement&#45;\nservice&#45;&gt;segment&#45;\ncalculator -->
<g id="edge7" class="edge">
<title>segment-\nmanagement-\nservice-&gt;segment-\ncalculator</title>
<path fill="none" stroke="#000000" stroke-dasharray="5,2" d="M339.9781,-446.3493C338.977,-432.6114 337.8662,-417.3668 336.8764,-403.7832"/>
<polygon fill="#000000" stroke="#000000" points="340.3645,-403.4912 336.1469,-393.772 333.383,-403.9999 340.3645,-403.4912"/>
<text text-anchor="middle" x="354.7132" y="-415.9251" font-family="Times,serif" font-size="14.00" fill="#000000">driver</text>
</g>
<!-- segment&#45;\nquery&#45;\nservice&#45;&gt;segment&#45;\ncalculator -->
<g id="edge8" class="edge">
<title>segment-\nquery-\nservice-&gt;segment-\ncalculator</title>
<path fill="none" stroke="#000000" d="M243.1014,-456.3336C260.8918,-438.323 283.1898,-415.7488 301.2486,-397.4665"/>
<polygon fill="#000000" stroke="#000000" points="304.1656,-399.4938 308.703,-389.9197 299.1855,-394.5746 304.1656,-399.4938"/>
<text text-anchor="middle" x="298.9376" y="-415.9251" font-family="Times,serif" font-size="14.00" fill="#000000">query</text>
</g>
<!-- user&#45;action&#45;\nexecutor -->
<g id="node10" class="node">
<title>user-action-\nexecutor</title>
<ellipse fill="none" stroke="#000000" cx="414" cy="-141.0469" rx="58.6697" ry="29.3315"/>
<text text-anchor="middle" x="414" y="-145.2469" font-family="Times,serif" font-size="14.00" fill="#000000">user-action-</text>
<text text-anchor="middle" x="414" y="-128.4469" font-family="Times,serif" font-size="14.00" fill="#000000">executor</text>
</g>
<!-- ondemand&#45;\nrule&#45;executor&#45;&gt;user&#45;action&#45;\nexecutor -->
<g id="edge15" class="edge">
<title>ondemand-\nrule-executor-&gt;user-action-\nexecutor</title>
<path fill="none" stroke="#000000" stroke-dasharray="5,2" d="M474.5603,-224.5089C464.1208,-210.1216 451.3023,-192.4556 440.1507,-177.0869"/>
<polygon fill="#000000" stroke="#000000" points="442.8583,-174.8588 434.1526,-168.8205 437.1927,-178.9698 442.8583,-174.8588"/>
<text text-anchor="middle" x="472.9972" y="-192.6626" font-family="Times,serif" font-size="14.00" fill="#000000">tasks</text>
</g>
<!-- segment&#45;\ncalculator&#45;&gt;ondemand&#45;\nrule&#45;executor -->
<g id="edge11" class="edge">
<title>segment-\ncalculator-&gt;ondemand-\nrule-executor</title>
<path fill="none" stroke="#000000" stroke-dasharray="5,2" d="M366.5808,-341.7192C390.8737,-324.8754 424.3207,-301.6846 450.9901,-283.193"/>
<polygon fill="#000000" stroke="#000000" points="453.167,-285.9427 459.3906,-277.3684 449.1784,-280.1902 453.167,-285.9427"/>
<text text-anchor="middle" x="436.0449" y="-304.2939" font-family="Times,serif" font-size="14.00" fill="#000000">feed</text>
</g>
<!-- segment&#45;\ncalculator&#45;&gt;segment&#45;change&#45;\nrule&#45;executor -->
<g id="edge12" class="edge">
<title>segment-\ncalculator-&gt;segment-change-\nrule-executor</title>
<path fill="none" stroke="#000000" stroke-dasharray="5,2" d="M334,-334.6874C334,-321.8194 334,-306.5492 334,-292.6944"/>
<polygon fill="#000000" stroke="#000000" points="337.5001,-292.4387 334,-282.4387 330.5001,-292.4387 337.5001,-292.4387"/>
<text text-anchor="middle" x="350.7132" y="-304.2939" font-family="Times,serif" font-size="14.00" fill="#000000">driver</text>
</g>
<!-- segment&#45;change&#45;\nrule&#45;executor&#45;&gt;user&#45;action&#45;\nexecutor -->
<g id="edge14" class="edge">
<title>segment-change-\nrule-executor-&gt;user-action-\nexecutor</title>
<path fill="none" stroke="#000000" stroke-dasharray="5,2" d="M354.3944,-224.2201C364.628,-209.9402 377.1363,-192.4862 388.0472,-177.2612"/>
<polygon fill="#000000" stroke="#000000" points="390.9397,-179.2336 393.9199,-169.0665 385.2499,-175.156 390.9397,-179.2336"/>
<text text-anchor="middle" x="391.9972" y="-192.6626" font-family="Times,serif" font-size="14.00" fill="#000000">tasks</text>
</g>
<!-- sms&#45;sender -->
<g id="node11" class="node">
<title>sms-sender</title>
<ellipse fill="none" stroke="#000000" cx="208" cy="-29.4156" rx="54.4508" ry="18"/>
<text text-anchor="middle" x="208" y="-25.2156" font-family="Times,serif" font-size="14.00" fill="#000000">sms-sender</text>
</g>
<!-- user&#45;action&#45;\nexecutor&#45;&gt;sms&#45;sender -->
<g id="edge16" class="edge">
<title>user-action-\nexecutor-&gt;sms-sender</title>
<path fill="none" stroke="#000000" d="M373.7921,-119.2583C336.5522,-99.078 281.6037,-69.3014 245.317,-49.6377"/>
<polygon fill="#000000" stroke="#000000" points="246.9754,-46.5556 236.5158,-44.8683 243.6403,-52.71 246.9754,-46.5556"/>
<text text-anchor="middle" x="333.1052" y="-81.0313" font-family="Times,serif" font-size="14.00" fill="#000000">call</text>
</g>
<!-- email&#45;sender -->
<g id="node12" class="node">
<title>email-sender</title>
<ellipse fill="none" stroke="#000000" cx="341" cy="-29.4156" rx="60.8101" ry="18"/>
<text text-anchor="middle" x="341" y="-25.2156" font-family="Times,serif" font-size="14.00" fill="#000000">email-sender</text>
</g>
<!-- user&#45;action&#45;\nexecutor&#45;&gt;email&#45;sender -->
<g id="edge17" class="edge">
<title>user-action-\nexecutor-&gt;email-sender</title>
<path fill="none" stroke="#000000" d="M395.579,-112.8776C384.0693,-95.277 369.3508,-72.7695 358.0994,-55.564"/>
<polygon fill="#000000" stroke="#000000" points="360.9694,-53.5577 352.5671,-47.104 355.1109,-57.3889 360.9694,-53.5577"/>
<text text-anchor="middle" x="391.1052" y="-81.0313" font-family="Times,serif" font-size="14.00" fill="#000000">call</text>
</g>
<!-- insided\ngroup&#45;updater -->
<g id="node13" class="node">
<title>insided\ngroup-updater</title>
<ellipse fill="none" stroke="#000000" cx="487" cy="-29.4156" rx="67.277" ry="29.3315"/>
<text text-anchor="middle" x="487" y="-33.6156" font-family="Times,serif" font-size="14.00" fill="#000000">insided</text>
<text text-anchor="middle" x="487" y="-16.8156" font-family="Times,serif" font-size="14.00" fill="#000000">group-updater</text>
</g>
<!-- user&#45;action&#45;\nexecutor&#45;&gt;insided\ngroup&#45;updater -->
<g id="edge18" class="edge">
<title>user-action-\nexecutor-&gt;insided\ngroup-updater</title>
<path fill="none" stroke="#000000" d="M432.421,-112.8776C441.6011,-98.8395 452.8224,-81.6799 462.6977,-66.5786"/>
<polygon fill="#000000" stroke="#000000" points="465.7872,-68.2491 468.331,-57.9642 459.9286,-64.418 465.7872,-68.2491"/>
<text text-anchor="middle" x="464.1052" y="-81.0313" font-family="Times,serif" font-size="14.00" fill="#000000">call</text>
</g>
<!-- crm\nuser&#45;updater -->
<g id="node14" class="node">
<title>crm\nuser-updater</title>
<ellipse fill="none" stroke="#000000" cx="633" cy="-29.4156" rx="60.5677" ry="29.3315"/>
<text text-anchor="middle" x="633" y="-33.6156" font-family="Times,serif" font-size="14.00" fill="#000000">crm</text>
<text text-anchor="middle" x="633" y="-16.8156" font-family="Times,serif" font-size="14.00" fill="#000000">user-updater</text>
</g>
<!-- user&#45;action&#45;\nexecutor&#45;&gt;crm\nuser&#45;updater -->
<g id="edge19" class="edge">
<title>user-action-\nexecutor-&gt;crm\nuser-updater</title>
<path fill="none" stroke="#000000" d="M455.1922,-120.0499C491.0959,-101.7487 543.3127,-75.1321 581.8775,-55.4744"/>
<polygon fill="#000000" stroke="#000000" points="583.554,-58.5484 590.8739,-50.8887 580.375,-52.3118 583.554,-58.5484"/>
<text text-anchor="middle" x="546.1052" y="-81.0313" font-family="Times,serif" font-size="14.00" fill="#000000">call</text>
</g>
</g>
</svg>